<?xml version="1.0" encoding="UTF-8" standalone="no"?>
<!-- Created with Inkscape (http://www.inkscape.org/) -->

<svg
   width="24.275427mm"
   height="14.971497mm"
   viewBox="0 0 24.275427 14.971497"
   version="1.1"
   id="svg46057"
   inkscape:version="1.1.2 (b8e25be833, 2022-02-05)"
   sodipodi:docname="100HzOff.svg"
   xmlns:inkscape="http://www.inkscape.org/namespaces/inkscape"
   xmlns:sodipodi="http://sodipodi.sourceforge.net/DTD/sodipodi-0.dtd"
   xmlns="http://www.w3.org/2000/svg"
   xmlns:svg="http://www.w3.org/2000/svg">
  <sodipodi:namedview
     id="namedview46059"
     pagecolor="#ffffff"
     bordercolor="#666666"
     borderopacity="1.0"
     inkscape:pageshadow="2"
     inkscape:pageopacity="0.0"
     inkscape:pagecheckerboard="0"
     inkscape:document-units="mm"
     showgrid="false"
     inkscape:zoom="0.69664703"
     inkscape:cx="-73.925529"
     inkscape:cy="-142.10927"
     inkscape:window-width="1920"
     inkscape:window-height="986"
     inkscape:window-x="-11"
     inkscape:window-y="-11"
     inkscape:window-maximized="1"
     inkscape:current-layer="layer1" />
  <defs
     id="defs46054" />
  <g
     inkscape:label="Layer 1"
     inkscape:groupmode="layer"
     id="layer1"
     transform="translate(-124.58863,-186.2099)">
    <path
       id="text34760-9"
       style="font-size:19.8867px;line-height:1.25;font-family:sans-serif;word-spacing:0px;fill:#c8c8c8;fill-opacity:1;stroke-width:0.497168"
       d="m 148.17115,193.90091 c 0.0208,-0.31054 0.0331,-0.62994 0.0331,-0.96222 0,-2.18158 -0.50193,-3.90992 -1.50533,-5.18521 -0.80272,-1.02929 -1.70882,-1.54358 -2.7187,-1.54358 -0.62146,0 -1.22347,0.21019 -1.80609,0.63097 -0.75093,0.53083 -1.35294,1.34021 -1.80609,2.42776 -0.45315,1.08108 -0.68006,2.37232 -0.68006,3.87418 0,0.25873 0.0101,0.51041 0.0253,0.7581 h 1.88619 c -0.004,-0.16952 -0.008,-0.33942 -0.008,-0.51522 0,-1.11992 0.0844,-2.25628 0.2527,-3.40857 0.16831,-1.15229 0.48527,-1.99691 0.95136,-2.53422 0.3431,-0.39488 0.73492,-0.59221 1.17513,-0.59221 0.37546,0 0.69576,0.10677 0.96118,0.32039 0.36899,0.31073 0.67025,0.8384 0.9033,1.58286 0.31073,1.00339 0.46612,2.25605 0.46612,3.7579 0,0.49019 -0.009,0.95231 -0.0264,1.38907 z" />
    <path
       id="path44766-5"
       style="font-size:19.8867px;line-height:1.25;font-family:sans-serif;word-spacing:0px;fill:#c8c8c8;fill-opacity:1;stroke-width:0.497168"
       d="m 134.03661,186.2099 c -0.62145,0 -1.22347,0.21019 -1.80609,0.63097 -0.75093,0.53083 -1.35294,1.34021 -1.80609,2.42776 -0.45315,1.08108 -0.67954,2.37232 -0.67954,3.87418 0,1.76081 0.35271,3.2661 1.05833,4.51549 0.83509,1.48244 1.88038,2.22364 3.13624,2.22364 0.46298,0 0.93865,-0.12935 1.42575,-0.38448 v -1.03301 c -0.0953,0.13089 -0.1978,0.24556 -0.30902,0.33952 -0.37547,0.31073 -0.7377,0.46612 -1.08727,0.46612 -0.73151,0 -1.28207,-0.48238 -1.65107,-1.44694 -0.44667,-1.14582 -0.66972,-2.62487 -0.66972,-4.43746 0,-1.11992 0.0839,-2.25629 0.25218,-3.40857 0.16831,-1.15229 0.48579,-1.99691 0.95188,-2.53422 0.3431,-0.39488 0.73492,-0.59221 1.17512,-0.59221 0.37547,0 0.69577,0.10677 0.96119,0.32039 0.36899,0.31073 0.66974,0.8384 0.90278,1.58285 0.31073,1.0034 0.46612,2.25605 0.46612,3.75791 0,0.49019 -0.009,0.95231 -0.0264,1.38907 h 1.89653 c 0.0208,-0.31054 0.0331,-0.62994 0.0331,-0.96222 0,-2.18158 -0.50142,-3.90992 -1.50482,-5.18521 -0.80272,-1.02929 -1.70934,-1.54358 -2.71921,-1.54358 z" />
    <path
       id="path44764-2"
       style="font-size:19.8867px;line-height:1.25;font-family:sans-serif;word-spacing:0px;fill:#c8c8c8;fill-opacity:1;stroke-width:0.497168"
       d="m 127.79257,186.2099 -3.20394,1.56322 0.14521,0.30075 c 0.42726,-0.20068 0.76094,-0.30075 1.00046,-0.30075 0.16831,0 0.31084,0.0486 0.42736,0.14572 0.123,0.0971 0.20687,0.24915 0.25218,0.45631 0.0647,0.27189 0.0972,0.88676 0.0972,1.84485 v 7.10809 c 0,0.78977 -0.0358,1.26546 -0.10698,1.4273 -0.0712,0.15537 -0.19701,0.28169 -0.37826,0.37879 -0.18127,0.0906 -0.58261,0.14208 -1.20407,0.15503 v 0.35967 h 4.95216 v -0.35967 c -0.59557,-0.0129 -0.99074,-0.0677 -1.18494,-0.16485 -0.19421,-0.0971 -0.32336,-0.23628 -0.38809,-0.41754 -0.0583,-0.18126 -0.0873,-0.64075 -0.0873,-1.37873 V 186.2099 Z" />
    <text
       xml:space="preserve"
       style="font-style:normal;font-variant:normal;font-weight:normal;font-stretch:normal;font-size:11.9244px;line-height:1.25;font-family:'Times New Roman';-inkscape-font-specification:'Times New Roman, ';word-spacing:0px;fill:#c8c8c8;fill-opacity:1;stroke-width:0.29811"
       x="135.15216"
       y="201.1814"
       id="text42336-1"><tspan
         sodipodi:role="line"
         id="tspan42334-6"
         style="font-style:normal;font-variant:normal;font-weight:normal;font-stretch:normal;font-family:'Times New Roman';-inkscape-font-specification:'Times New Roman, ';fill:#c8c8c8;fill-opacity:1;stroke-width:0.29811"
         x="135.15216"
         y="201.1814">Hz</tspan></text>
  </g>
</svg>
