<?xml version="1.0" encoding="UTF-8" standalone="no"?>
<!-- Created with Inkscape (http://www.inkscape.org/) -->

<svg
   width="5.9999108mm"
   height="9.1213799mm"
   viewBox="0 0 5.9999107 9.1213798"
   version="1.1"
   id="svg36422"
   inkscape:version="1.1.2 (b8e25be833, 2022-02-05)"
   sodipodi:docname="BetaTwoOff.svg"
   xmlns:inkscape="http://www.inkscape.org/namespaces/inkscape"
   xmlns:sodipodi="http://sodipodi.sourceforge.net/DTD/sodipodi-0.dtd"
   xmlns="http://www.w3.org/2000/svg"
   xmlns:svg="http://www.w3.org/2000/svg">
  <sodipodi:namedview
     id="namedview36424"
     pagecolor="#ffffff"
     bordercolor="#666666"
     borderopacity="1.0"
     inkscape:pageshadow="2"
     inkscape:pageopacity="0.0"
     inkscape:pagecheckerboard="0"
     inkscape:document-units="mm"
     showgrid="false"
     inkscape:zoom="2.8284271"
     inkscape:cx="-80.963727"
     inkscape:cy="-70.710678"
     inkscape:window-width="1920"
     inkscape:window-height="986"
     inkscape:window-x="-11"
     inkscape:window-y="-11"
     inkscape:window-maximized="1"
     inkscape:current-layer="layer1" />
  <defs
     id="defs36419">
    <rect
       x="-254"
       y="-186"
       width="80"
       height="112"
       id="rect38047" />
  </defs>
  <g
     inkscape:label="Layer 1"
     inkscape:groupmode="layer"
     id="layer1"
     transform="translate(-11.162621,-155.26658)">
    <text
       xml:space="preserve"
       style="font-style:normal;font-weight:normal;font-size:10.5833px;line-height:1.25;font-family:sans-serif;fill:#000000;fill-opacity:1;stroke:none;stroke-width:0.264583"
       x="-62.414955"
       y="83.597481"
       id="text693"><tspan
         sodipodi:role="line"
         id="tspan691"
         style="stroke-width:0.264583"
         x="-62.414955"
         y="83.597481" /></text>
    <path
       id="path38559"
       style="font-style:normal;font-weight:normal;font-size:10.5833px;line-height:1.25;font-family:sans-serif;fill:#c8c8c8;fill-opacity:1;stroke:none;stroke-width:3.49999;stroke-miterlimit:4;stroke-dasharray:none"
       d="m 13.172834,155.26713 c -0.299722,0 -0.573609,0.05 -0.821655,0.14986 -0.248046,0.0999 -0.459921,0.24461 -0.63562,0.43409 -0.175699,0.18603 -0.311782,0.41685 -0.408244,0.69246 -0.09646,0.27216 -0.144694,0.58394 -0.144694,0.93534 v 6.74378 c 0,0.0276 0.0052,0.0517 0.0155,0.0723 0.01378,0.0207 0.03617,0.0379 0.06718,0.0517 0.03445,0.0138 0.07924,0.0241 0.134359,0.031 0.05512,0.007 0.124024,0.0103 0.206706,0.0103 0.08613,0 0.156752,-0.003 0.211873,-0.0103 0.05512,-0.007 0.09819,-0.0172 0.129191,-0.031 0.03101,-0.0138 0.0534,-0.031 0.06718,-0.0517 0.01378,-0.0207 0.02067,-0.0448 0.02067,-0.0723 v -1.35909 c 0,-0.11025 -0.0034,-0.22393 -0.01033,-0.34107 -0.0034,-0.11368 -0.01033,-0.22221 -0.02067,-0.32556 0.07924,0.062 0.165365,0.11886 0.258382,0.17053 0.09302,0.0482 0.192926,0.0896 0.299724,0.12403 0.110242,0.0344 0.227376,0.0603 0.3514,0.0775 0.124023,0.0207 0.253214,0.031 0.387573,0.031 0.0043,0 0.0081,-5.1e-4 0.0124,-5.2e-4 v -0.35295 l 0.827857,-0.57567 c 0.139238,-0.0959 0.273172,-0.19139 0.402559,-0.28681 0.129386,-0.0954 0.254086,-0.19037 0.373621,-0.28525 0.126102,-0.0992 0.242064,-0.19327 0.348299,-0.28216 0.0861,-0.072 0.161041,-0.1383 0.234094,-0.2036 0.0049,-0.0705 0.0078,-0.14199 0.0078,-0.21446 0,-0.22737 -0.03101,-0.44614 -0.09302,-0.65629 -0.06201,-0.21359 -0.15503,-0.40308 -0.279053,-0.56844 -0.120578,-0.16536 -0.272163,-0.30317 -0.454753,-0.41341 -0.05417,-0.0333 -0.112038,-0.0623 -0.171565,-0.0884 -0.06501,0.0125 -0.127507,0.0207 -0.19482,0.0372 -0.06962,0.0171 -0.138941,0.0363 -0.20774,0.0579 -0.0688,0.0216 -0.137178,0.0457 -0.205155,0.0718 -0.06798,0.0261 -0.375193,-0.51849 -0.442349,-0.48779 -0.06716,0.0307 0.03979,0.67179 0.03979,0.67179 v 0 l -0.03979,-0.67179 c 0.09326,-0.0373 0.201946,-0.0729 0.326078,-0.10697 0.124132,-0.0341 0.264095,-0.0667 0.419096,-0.0977 0.156314,-0.0309 0.309893,-0.0543 0.460953,-0.0698 0.0091,-9.3e-4 0.01778,-6.7e-4 0.02687,-0.002 0.02975,-0.0395 0.06107,-0.0776 0.08682,-0.12092 0.165364,-0.27561 0.248047,-0.59601 0.248047,-0.96119 0,-0.22393 -0.03617,-0.43925 -0.108521,-0.64595 -0.0689,-0.20671 -0.179145,-0.39102 -0.330729,-0.55294 -0.148139,-0.16192 -0.339343,-0.28939 -0.573608,-0.3824 -0.230821,-0.0965 -0.504708,-0.1447 -0.821656,-0.1447 z m -0.03617,0.71314 c 0.179144,0 0.332452,0.0293 0.45992,0.0879 0.127468,0.0586 0.229099,0.1378 0.304891,0.23771 0.07924,0.0999 0.136081,0.21704 0.170532,0.3514 0.03445,0.13436 0.05168,0.27561 0.05168,0.42374 0,0.16881 -0.02239,0.33073 -0.06718,0.48576 -0.04479,0.15503 -0.117133,0.29284 -0.217041,0.41341 -0.09991,0.11714 -0.230822,0.21188 -0.392741,0.28422 -0.158474,0.0689 -0.3514,0.10336 -0.578776,0.10336 H 12.76459 c -0.02756,0 -0.05168,0.007 -0.07235,0.0207 -0.02067,0.0138 -0.0379,0.0344 -0.05168,0.062 -0.01378,0.0276 -0.02584,0.0637 -0.03617,0.10852 -0.0069,0.0448 -0.01034,0.0982 -0.01034,0.1602 0,0.12402 0.01378,0.21359 0.04134,0.26871 0.03101,0.0551 0.07579,0.0827 0.134359,0.0827 h 0.444417 c 0.248046,0 0.458199,0.0344 0.630453,0.10335 0.175699,0.0689 0.316949,0.16536 0.423747,0.28939 0.106797,0.12402 0.184312,0.27216 0.232544,0.44442 0.05168,0.1688 0.07751,0.35484 0.07751,0.5581 0,0.2136 -0.02584,0.40652 -0.07751,0.57878 -0.05168,0.16881 -0.130914,0.31522 -0.237712,0.43925 -0.106798,0.12057 -0.246325,0.21532 -0.418579,0.28422 -0.168809,0.0654 -0.370349,0.0982 -0.604614,0.0982 -0.206705,0 -0.415135,-0.0362 -0.625285,-0.10852 -0.21015,-0.0758 -0.409967,-0.19292 -0.599447,-0.3514 v -3.93257 c 0,-0.23083 0.02239,-0.43753 0.06718,-0.62012 0.04823,-0.18604 0.117133,-0.34279 0.206705,-0.47026 0.09302,-0.13091 0.210152,-0.23082 0.3514,-0.29972 0.141248,-0.0689 0.306614,-0.10335 0.496094,-0.10335 z"
       sodipodi:nodetypes="ccccsscccsccssscccccscccccccscccccsscccccccccsccccccsccssccsscscscsscccscccsccsccscc" />
    <text
       xml:space="preserve"
       style="font-style:normal;font-weight:normal;font-size:6.74532px;line-height:1.25;font-family:sans-serif;fill:#c8c8c8;fill-opacity:1;stroke:none;stroke-width:0.168633"
       x="12.894382"
       y="166.8849"
       id="text38949"
       transform="scale(1.0249582,0.97564956)"><tspan
         sodipodi:role="line"
         id="tspan38947"
         style="fill:#c8c8c8;fill-opacity:1;stroke-width:0.168633"
         x="12.894382"
         y="166.8849">2</tspan></text>
  </g>
</svg>
