<?xml version="1.0" encoding="UTF-8" standalone="no"?>
<!-- Created with Inkscape (http://www.inkscape.org/) -->

<svg
   width="5.9999194mm"
   height="9.1213799mm"
   viewBox="0 0 5.9999194 9.1213799"
   version="1.1"
   id="svg42343"
   inkscape:version="1.1.2 (b8e25be833, 2022-02-05)"
   sodipodi:docname="BetaTwoOn.svg"
   xmlns:inkscape="http://www.inkscape.org/namespaces/inkscape"
   xmlns:sodipodi="http://sodipodi.sourceforge.net/DTD/sodipodi-0.dtd"
   xmlns="http://www.w3.org/2000/svg"
   xmlns:svg="http://www.w3.org/2000/svg">
  <sodipodi:namedview
     id="namedview42345"
     pagecolor="#ffffff"
     bordercolor="#666666"
     borderopacity="1.0"
     inkscape:pageshadow="2"
     inkscape:pageopacity="0.0"
     inkscape:pagecheckerboard="0"
     inkscape:document-units="mm"
     showgrid="false"
     inkscape:zoom="4.0718557"
     inkscape:cx="-10.437501"
     inkscape:cy="-16.700002"
     inkscape:window-width="1920"
     inkscape:window-height="986"
     inkscape:window-x="-11"
     inkscape:window-y="-11"
     inkscape:window-maximized="1"
     inkscape:current-layer="layer1" />
  <defs
     id="defs42340" />
  <g
     inkscape:label="Layer 1"
     inkscape:groupmode="layer"
     id="layer1"
     transform="translate(-153.2191,-187.68065)">
    <text
       xml:space="preserve"
       style="font-style:normal;font-weight:normal;font-size:10.5833px;line-height:1.25;font-family:sans-serif;fill:#ffff00;fill-opacity:1;stroke:none;stroke-width:0.264583"
       x="-20.143915"
       y="74.775696"
       id="text693"><tspan
         sodipodi:role="line"
         id="tspan691"
         style="stroke-width:0.264583;fill:#ffff00"
         x="-20.143915"
         y="74.775696" /></text>
    <text
       xml:space="preserve"
       style="font-style:normal;font-weight:normal;font-size:10.5833px;line-height:1.25;font-family:sans-serif;fill:#ffff00;fill-opacity:1;stroke:none;stroke-width:0.264583"
       x="79.641525"
       y="116.01155"
       id="text693-2"><tspan
         sodipodi:role="line"
         id="tspan691-4"
         style="stroke-width:0.264583;fill:#ffff00"
         x="79.641525"
         y="116.01155" /></text>
    <path
       id="path38559"
       style="font-style:normal;font-weight:normal;font-size:10.5833px;line-height:1.25;font-family:sans-serif;fill:#ffff00;fill-opacity:1;stroke:none;stroke-width:3.49999;stroke-miterlimit:4;stroke-dasharray:none"
       d="m 155.22931,187.6812 c -0.29972,0 -0.57361,0.05 -0.82165,0.14986 -0.24805,0.0999 -0.45992,0.24461 -0.63562,0.43409 -0.1757,0.18603 -0.31178,0.41685 -0.40825,0.69246 -0.0965,0.27216 -0.14469,0.58394 -0.14469,0.93534 v 6.74378 c 0,0.0276 0.005,0.0517 0.0155,0.0723 0.0138,0.0207 0.0362,0.0379 0.0672,0.0517 0.0344,0.0138 0.0792,0.0241 0.13436,0.031 0.0551,0.007 0.12402,0.0103 0.20671,0.0103 0.0861,0 0.15675,-0.003 0.21187,-0.0103 0.0551,-0.007 0.0982,-0.0172 0.12919,-0.031 0.031,-0.0138 0.0534,-0.031 0.0672,-0.0517 0.0138,-0.0207 0.0207,-0.0448 0.0207,-0.0723 v -1.35909 c 0,-0.11025 -0.003,-0.22393 -0.0103,-0.34107 -0.003,-0.11368 -0.0103,-0.22221 -0.0207,-0.32556 0.0792,0.062 0.16536,0.11886 0.25838,0.17053 0.093,0.0482 0.19293,0.0896 0.29973,0.12403 0.11024,0.0344 0.22737,0.0603 0.3514,0.0775 0.12402,0.0207 0.25321,0.031 0.38757,0.031 0.004,0 0.008,-5.1e-4 0.0124,-5.2e-4 v -0.35295 l 0.82786,-0.57567 c 0.13923,-0.0959 0.27317,-0.19139 0.40255,-0.28681 0.12939,-0.0954 0.25409,-0.19037 0.37363,-0.28525 0.1261,-0.0992 0.24206,-0.19327 0.34829,-0.28216 0.0861,-0.072 0.16105,-0.1383 0.2341,-0.2036 0.005,-0.0705 0.008,-0.14199 0.008,-0.21446 0,-0.22737 -0.031,-0.44614 -0.093,-0.65629 -0.062,-0.21359 -0.15503,-0.40308 -0.27905,-0.56844 -0.12058,-0.16536 -0.27217,-0.30317 -0.45476,-0.41341 -0.0542,-0.0333 -0.11204,-0.0623 -0.17156,-0.0884 -0.065,0.0125 -0.12751,0.0207 -0.19482,0.0372 -0.0696,0.0171 -0.13894,0.0363 -0.20774,0.0579 -0.0688,0.0216 -0.13718,0.0457 -0.20516,0.0718 -0.068,0.0261 -0.37519,-0.51849 -0.44235,-0.48779 -0.0672,0.0307 0.0398,0.67179 0.0398,0.67179 v 0 l -0.0398,-0.67179 c 0.0933,-0.0373 0.20195,-0.0729 0.32608,-0.10697 0.12413,-0.0341 0.2641,-0.0667 0.4191,-0.0977 0.15631,-0.0309 0.30989,-0.0543 0.46095,-0.0698 0.009,-9.3e-4 0.0178,-6.7e-4 0.0269,-0.002 0.0298,-0.0395 0.0611,-0.0776 0.0868,-0.12092 0.16537,-0.27561 0.24805,-0.59601 0.24805,-0.96119 0,-0.22393 -0.0362,-0.43925 -0.10852,-0.64595 -0.0689,-0.20671 -0.17915,-0.39102 -0.33073,-0.55294 -0.14814,-0.16192 -0.33935,-0.28939 -0.57361,-0.3824 -0.23082,-0.0965 -0.50471,-0.1447 -0.82166,-0.1447 z m -0.0362,0.71314 c 0.17915,0 0.33246,0.0293 0.45992,0.0879 0.12747,0.0586 0.2291,0.1378 0.30489,0.23771 0.0792,0.0999 0.13609,0.21704 0.17054,0.3514 0.0344,0.13436 0.0517,0.27561 0.0517,0.42374 0,0.16881 -0.0224,0.33073 -0.0672,0.48576 -0.0448,0.15503 -0.11714,0.29284 -0.21704,0.41341 -0.0999,0.11714 -0.23083,0.21188 -0.39275,0.28422 -0.15847,0.0689 -0.3514,0.10336 -0.57877,0.10336 h -0.10336 c -0.0276,0 -0.0517,0.007 -0.0724,0.0207 -0.0207,0.0138 -0.0379,0.0344 -0.0517,0.062 -0.0138,0.0276 -0.0258,0.0637 -0.0362,0.10852 -0.007,0.0448 -0.0103,0.0982 -0.0103,0.1602 0,0.12402 0.0138,0.21359 0.0413,0.26871 0.031,0.0551 0.0758,0.0827 0.13436,0.0827 h 0.44442 c 0.24804,0 0.45819,0.0344 0.63045,0.10335 0.1757,0.0689 0.31695,0.16536 0.42375,0.28939 0.10679,0.12402 0.18431,0.27216 0.23254,0.44442 0.0517,0.1688 0.0775,0.35484 0.0775,0.5581 0,0.2136 -0.0258,0.40652 -0.0775,0.57878 -0.0517,0.16881 -0.13091,0.31522 -0.23771,0.43925 -0.1068,0.12057 -0.24633,0.21532 -0.41858,0.28422 -0.16881,0.0654 -0.37035,0.0982 -0.60462,0.0982 -0.2067,0 -0.41513,-0.0362 -0.62528,-0.10852 -0.21015,-0.0758 -0.40997,-0.19292 -0.59945,-0.3514 v -3.93257 c 0,-0.23083 0.0224,-0.43753 0.0672,-0.62012 0.0482,-0.18604 0.11714,-0.34279 0.20671,-0.47026 0.093,-0.13091 0.21015,-0.23082 0.3514,-0.29972 0.14125,-0.0689 0.30661,-0.10335 0.49609,-0.10335 z"
       sodipodi:nodetypes="ccccsscccsccssscccccscccccccscccccsscccccccccsccccccsccssccsscscscsscccscccsccsccscc" />
    <text
       xml:space="preserve"
       style="font-style:normal;font-weight:normal;font-size:6.74532px;line-height:1.25;font-family:sans-serif;fill:#ffff00;fill-opacity:1;stroke:none;stroke-width:0.168633"
       x="151.49173"
       y="200.10797"
       id="text38949"
       transform="scale(1.0249582,0.97564955)"><tspan
         sodipodi:role="line"
         id="tspan38947"
         style="fill:#ffff00;fill-opacity:1;stroke-width:0.168633"
         x="151.49173"
         y="200.10797">2</tspan></text>
  </g>
</svg>
