<?xml version="1.0" encoding="UTF-8" standalone="no"?>
<!-- Created with Inkscape (http://www.inkscape.org/) -->

<svg
   width="4.6214209mm"
   height="9.1209202mm"
   viewBox="0 0 4.621421 9.1209201"
   version="1.1"
   id="svg36224"
   inkscape:version="1.1.2 (b8e25be833, 2022-02-05)"
   sodipodi:docname="BetaOneOn.svg"
   xmlns:inkscape="http://www.inkscape.org/namespaces/inkscape"
   xmlns:sodipodi="http://sodipodi.sourceforge.net/DTD/sodipodi-0.dtd"
   xmlns="http://www.w3.org/2000/svg"
   xmlns:svg="http://www.w3.org/2000/svg">
  <sodipodi:namedview
     id="namedview36226"
     pagecolor="#ffffff"
     bordercolor="#666666"
     borderopacity="1.0"
     inkscape:pageshadow="2"
     inkscape:pageopacity="0.0"
     inkscape:pagecheckerboard="0"
     inkscape:document-units="mm"
     showgrid="false"
     inkscape:zoom="11.516947"
     inkscape:cx="-27.568069"
     inkscape:cy="16.150113"
     inkscape:window-width="1920"
     inkscape:window-height="986"
     inkscape:window-x="-11"
     inkscape:window-y="-11"
     inkscape:window-maximized="1"
     inkscape:current-layer="layer1" />
  <defs
     id="defs36221" />
  <g
     inkscape:label="Layer 1"
     inkscape:groupmode="layer"
     id="layer1"
     transform="translate(-60.247179,-185.47196)">
    <text
       xml:space="preserve"
       style="font-style:normal;font-weight:normal;font-size:10.5833px;line-height:1.25;font-family:sans-serif;fill:#000000;fill-opacity:1;stroke:none;stroke-width:0.264583"
       x="41.947178"
       y="74.169571"
       id="text693"><tspan
         sodipodi:role="line"
         id="tspan691"
         style="stroke-width:0.264583"
         x="41.947178"
         y="74.169571" /></text>
    <text
       xml:space="preserve"
       style="font-style:normal;font-weight:normal;font-size:10.5833px;line-height:1.25;font-family:sans-serif;fill:#000000;fill-opacity:1;stroke:none;stroke-width:0.264583"
       x="-13.540604"
       y="116.32815"
       id="text693-8"><tspan
         sodipodi:role="line"
         id="tspan691-4"
         style="stroke-width:0.264583"
         x="-13.540604"
         y="116.32815" /></text>
    <path
       id="path36108"
       style="font-style:normal;font-weight:normal;font-size:10.5833px;line-height:1.25;font-family:sans-serif;fill:#00ff00;fill-opacity:1;stroke:none;stroke-width:3.49999;stroke-miterlimit:4;stroke-dasharray:none"
       d="m 62.25739,185.47196 c -0.299722,0 -0.573609,0.0499 -0.821655,0.14986 -0.248047,0.0999 -0.45992,0.2446 -0.63562,0.43408 -0.175699,0.18604 -0.311782,0.41685 -0.408244,0.69247 -0.09646,0.27215 -0.144692,0.58394 -0.144692,0.93534 v 6.74377 c 0,0.0276 0.0052,0.0516 0.0155,0.0724 0.01378,0.0207 0.03617,0.0384 0.06718,0.0522 0.03445,0.0138 0.07924,0.0236 0.134358,0.0305 0.05512,0.007 0.124023,0.0103 0.206705,0.0103 0.08613,0 0.15675,-0.003 0.211873,-0.0103 0.05512,-0.007 0.09819,-0.0167 0.129191,-0.0305 0.03101,-0.0138 0.0534,-0.0315 0.06718,-0.0522 0.01378,-0.0207 0.02066,-0.0447 0.02066,-0.0724 v -1.35909 c 0,-0.11024 -0.0034,-0.22393 -0.01035,-0.34106 -0.0034,-0.11369 -0.01035,-0.22221 -0.02066,-0.32557 0.07924,0.062 0.165365,0.11886 0.258382,0.17054 0.09302,0.0482 0.192923,0.0896 0.299722,0.12402 0.110242,0.0345 0.227378,0.0603 0.351402,0.0775 0.124023,0.0207 0.253214,0.031 0.387572,0.031 0.385847,1e-5 0.716579,-0.0568 0.992187,-0.17053 0.279051,-0.11713 0.508151,-0.27561 0.687298,-0.47542 0.06526,-0.0728 0.122269,-0.1516 0.175183,-0.23306 v -2.1146 c -0.0753,0.0518 -0.156736,0.10371 -0.243914,0.15554 -0.08718,0.0518 -0.180515,0.10372 -0.279569,0.15555 -0.03104,0.0162 -0.0665,0.0323 -0.0987,0.0486 0.04095,0.15364 0.0646,0.31877 0.0646,0.49972 0,0.21358 -0.02582,0.40652 -0.07752,0.57877 -0.05168,0.16881 -0.13091,0.31523 -0.237709,0.43925 -0.106797,0.12058 -0.246327,0.21532 -0.418579,0.28422 -0.168812,0.0655 -0.370351,0.0982 -0.604615,0.0982 -0.206706,0 -0.415137,-0.0362 -0.625285,-0.10852 -0.21015,-0.0758 -0.409969,-0.19293 -0.599448,-0.3514 v -3.93258 c 0,-0.23082 0.02238,-0.43753 0.06718,-0.62012 0.04823,-0.18604 0.117133,-0.34278 0.206705,-0.47025 0.09302,-0.13091 0.210151,-0.23082 0.351399,-0.29972 0.14125,-0.0689 0.306615,-0.10336 0.496093,-0.10336 0.179145,0 0.332452,0.0292 0.459923,0.0879 0.127466,0.0586 0.229097,0.13781 0.30489,0.23771 0.07924,0.0999 0.13608,0.21704 0.170532,0.3514 0.03445,0.13435 0.05168,0.27561 0.05168,0.42375 0,0.16881 -0.02238,0.33073 -0.06718,0.48576 -0.04479,0.15503 -0.117134,0.29283 -0.217043,0.41341 -0.09991,0.11713 -0.230823,0.21188 -0.39274,0.28422 -0.158474,0.0689 -0.351401,0.10335 -0.578776,0.10335 h -0.103354 c -0.02756,0 -0.05168,0.007 -0.07235,0.0212 -0.02066,0.0138 -0.0379,0.0344 -0.05168,0.062 -0.01379,0.0276 -0.02585,0.0637 -0.03617,0.10852 -0.0069,0.0448 -0.01035,0.0982 -0.01035,0.1602 0,0.12401 0.01378,0.21359 0.04134,0.26871 0.03101,0.0551 0.07579,0.0827 0.134361,0.0827 h 0.444415 c 0.248047,0 0.458198,0.0345 0.630455,0.10336 0.05024,0.0197 0.09699,0.0425 0.141592,0.0667 0.02368,-0.0127 0.04948,-0.0243 0.07286,-0.0372 0.14192,-0.0782 0.278363,-0.15948 0.409279,-0.24391 0.08673,-0.0559 0.162994,-0.11101 0.241329,-0.1664 -0.01638,-0.0107 -0.03168,-0.0224 -0.04858,-0.0325 -0.179145,-0.11026 -0.387575,-0.18087 -0.625285,-0.21188 0.320392,-0.12402 0.561554,-0.32212 0.723471,-0.59428 0.165365,-0.2756 0.248047,-0.596 0.248047,-0.96118 0,-0.22393 -0.03617,-0.43925 -0.108521,-0.64595 -0.0689,-0.20671 -0.179147,-0.39102 -0.330729,-0.55294 -0.148141,-0.16192 -0.339344,-0.28939 -0.573609,-0.38241 -0.23082,-0.0965 -0.504709,-0.14469 -0.821656,-0.14469 z m 2.226739,2.93418 c -0.10382,0.20985 -0.280591,0.42648 -0.530201,0.64958 -0.249608,0.2231 -0.541333,0.41315 -0.874882,0.56999 v 0.57671 c 0.185552,-0.0685 0.39438,-0.17156 0.626319,-0.30851 0.234148,-0.13695 0.422793,-0.27387 0.566372,-0.41083 v 3.8008 H 64.8686 v -4.87774 z" />
    <text
       xml:space="preserve"
       style="font-style:normal;font-weight:normal;font-size:10.5833px;line-height:1.25;font-family:sans-serif;fill:#000000;fill-opacity:1;stroke:none;stroke-width:0.264583"
       x="73.907112"
       y="194.28526"
       id="text24970"><tspan
         sodipodi:role="line"
         id="tspan24968"
         style="stroke-width:0.264583"
         x="73.907112"
         y="194.28526" /></text>
  </g>
</svg>
