<?xml version="1.0" encoding="UTF-8" standalone="no"?>
<!-- Created with Inkscape (http://www.inkscape.org/) -->

<svg
   width="4.6214213mm"
   height="9.1208887mm"
   viewBox="0 0 4.6214213 9.1208887"
   version="1.1"
   id="svg22721"
   inkscape:version="1.1.2 (b8e25be833, 2022-02-05)"
   sodipodi:docname="BetaOneOff.svg"
   xmlns:inkscape="http://www.inkscape.org/namespaces/inkscape"
   xmlns:sodipodi="http://sodipodi.sourceforge.net/DTD/sodipodi-0.dtd"
   xmlns="http://www.w3.org/2000/svg"
   xmlns:svg="http://www.w3.org/2000/svg">
  <sodipodi:namedview
     id="namedview22723"
     pagecolor="#ffffff"
     bordercolor="#666666"
     borderopacity="1.0"
     inkscape:pageshadow="2"
     inkscape:pageopacity="0.0"
     inkscape:pagecheckerboard="0"
     inkscape:document-units="mm"
     showgrid="false"
     inkscape:zoom="2.8284271"
     inkscape:cx="-37.299883"
     inkscape:cy="-8.4852814"
     inkscape:window-width="1920"
     inkscape:window-height="986"
     inkscape:window-x="-11"
     inkscape:window-y="-11"
     inkscape:window-maximized="1"
     inkscape:current-layer="layer1" />
  <defs
     id="defs22718" />
  <g
     inkscape:label="Layer 1"
     inkscape:groupmode="layer"
     id="layer1"
     transform="translate(-70.552283,-175.53089)">
    <text
       xml:space="preserve"
       style="font-style:normal;font-weight:normal;font-size:10.5833px;line-height:1.25;font-family:sans-serif;fill:#000000;fill-opacity:1;stroke:none;stroke-width:0.264583"
       x="52.252281"
       y="64.2285"
       id="text693"><tspan
         sodipodi:role="line"
         id="tspan691"
         style="stroke-width:0.264583"
         x="52.252281"
         y="64.2285" /></text>
    <text
       xml:space="preserve"
       style="font-style:normal;font-weight:normal;font-size:10.5833px;line-height:1.25;font-family:sans-serif;fill:#000000;fill-opacity:1;stroke:none;stroke-width:0.264583"
       x="-3.2354994"
       y="106.38708"
       id="text693-8"><tspan
         sodipodi:role="line"
         id="tspan691-4"
         style="stroke-width:0.264583"
         x="-3.2354994"
         y="106.38708" /></text>
    <path
       id="path36108"
       style="font-style:normal;font-weight:normal;font-size:10.5833px;line-height:1.25;font-family:sans-serif;fill:#c8c8c8;fill-opacity:1;stroke:none;stroke-width:13.2283;stroke-miterlimit:4;stroke-dasharray:none"
       d="m 274.25195,663.42383 c -1.13281,0 -2.16797,0.1886 -3.10547,0.5664 -0.9375,0.37758 -1.73828,0.92448 -2.40234,1.64063 -0.66406,0.70314 -1.17839,1.57551 -1.54297,2.61719 -0.36457,1.02863 -0.54687,2.20703 -0.54687,3.53515 v 25.48828 c 0,0.10432 0.0197,0.19521 0.0586,0.27344 0.0521,0.0782 0.1367,0.14511 0.25391,0.19727 0.1302,0.0521 0.29948,0.0891 0.50781,0.11523 0.20833,0.0265 0.46875,0.0391 0.78125,0.0391 0.32553,0 0.59244,-0.0115 0.80078,-0.0391 0.20833,-0.0265 0.37111,-0.0631 0.48828,-0.11523 0.11721,-0.0522 0.20183,-0.11903 0.25391,-0.19727 0.0521,-0.0782 0.0781,-0.16912 0.0781,-0.27344 v -5.13671 c 0,-0.41666 -0.0129,-0.84637 -0.0391,-1.28907 -0.0129,-0.42969 -0.0391,-0.83985 -0.0781,-1.23047 0.29949,0.23434 0.625,0.44921 0.97656,0.64454 0.35157,0.18217 0.72916,0.33865 1.13281,0.46875 0.41666,0.13039 0.85938,0.22796 1.32813,0.29296 0.46875,0.0782 0.95703,0.11719 1.46484,0.11719 1.45832,4e-5 2.70833,-0.21468 3.75,-0.64453 1.05468,-0.4427 1.92057,-1.04169 2.59766,-1.79687 0.24665,-0.27515 0.46212,-0.57295 0.66211,-0.88086 v -7.99219 c -0.2846,0.19578 -0.59239,0.392 -0.92188,0.58789 -0.3295,0.19578 -0.68226,0.392 -1.05664,0.58789 -0.11732,0.0612 -0.25135,0.12199 -0.37305,0.18359 0.15477,0.58069 0.24414,1.20477 0.24414,1.88868 0,0.80726 -0.0976,1.53647 -0.29297,2.1875 -0.19532,0.63802 -0.49478,1.19141 -0.89843,1.66015 -0.40364,0.45574 -0.931,0.81381 -1.58203,1.07422 -0.63803,0.24756 -1.39975,0.37109 -2.28516,0.37109 -0.78125,0 -1.56902,-0.13682 -2.36328,-0.41015 -0.79427,-0.28649 -1.54949,-0.72919 -2.26563,-1.32813 v -14.86328 c 0,-0.87239 0.0846,-1.65364 0.25391,-2.34375 0.18229,-0.70314 0.44271,-1.29557 0.78125,-1.77734 0.35157,-0.49478 0.79427,-0.8724 1.32812,-1.13281 0.53386,-0.26041 1.15886,-0.39063 1.875,-0.39063 0.67708,0 1.25651,0.11055 1.73829,0.33203 0.48176,0.22148 0.86588,0.52086 1.15234,0.89844 0.29949,0.37757 0.51432,0.82031 0.64453,1.32812 0.13021,0.50778 0.19531,1.04167 0.19531,1.60157 0,0.63802 -0.0846,1.24999 -0.2539,1.83593 -0.16929,0.58594 -0.44271,1.10677 -0.82032,1.5625 -0.37761,0.4427 -0.8724,0.80081 -1.48437,1.07422 -0.59896,0.26041 -1.32813,0.39063 -2.1875,0.39063 h -0.39063 c -0.10416,0 -0.19531,0.0283 -0.27343,0.0801 -0.0781,0.0521 -0.14323,0.13006 -0.19532,0.23437 -0.0521,0.10432 -0.0977,0.24076 -0.13671,0.41016 -0.0261,0.16932 -0.0391,0.37114 -0.0391,0.60547 0,0.46873 0.0521,0.80729 0.15625,1.01562 0.11721,0.20825 0.28646,0.3125 0.50782,0.3125 h 1.67968 c 0.9375,0 1.73177,0.13037 2.38282,0.39063 0.18988,0.0744 0.36657,0.16048 0.53515,0.25195 0.0895,-0.048 0.18703,-0.0919 0.27539,-0.14063 0.53639,-0.29555 1.05208,-0.60277 1.54688,-0.92187 0.3278,-0.21128 0.61604,-0.41956 0.91211,-0.62891 -0.0619,-0.0404 -0.11972,-0.0845 -0.1836,-0.12304 -0.67708,-0.4167 -1.46485,-0.68358 -2.36328,-0.80079 1.21093,-0.46873 2.12241,-1.21745 2.73438,-2.24609 0.625,-1.04164 0.9375,-2.2526 0.9375,-3.63281 0,-0.84635 -0.13671,-1.66018 -0.41016,-2.44141 -0.26041,-0.78126 -0.67709,-1.47786 -1.25,-2.08984 -0.5599,-0.61198 -1.28256,-1.09374 -2.16797,-1.44531 -0.87239,-0.36473 -1.90756,-0.54688 -3.10547,-0.54688 z m 8.41602,11.08984 c -0.39239,0.79313 -1.0605,1.61186 -2.00391,2.45508 -0.9434,0.84322 -2.04598,1.56154 -3.30664,2.1543 v 2.17968 c 0.7013,-0.25881 1.49057,-0.64839 2.36719,-1.16601 0.88497,-0.51762 1.59796,-1.03511 2.14062,-1.55274 v 14.36524 h 2.25586 v -18.43555 z"
       transform="scale(0.26458333)" />
    <text
       xml:space="preserve"
       style="font-style:normal;font-weight:normal;font-size:10.5833px;line-height:1.25;font-family:sans-serif;fill:#000000;fill-opacity:1;stroke:none;stroke-width:0.264583"
       x="84.212219"
       y="184.34419"
       id="text24970"><tspan
         sodipodi:role="line"
         id="tspan24968"
         style="stroke-width:0.264583"
         x="84.212219"
         y="184.34419" /></text>
  </g>
</svg>
