<?xml version="1.0" encoding="UTF-8" standalone="no"?>
<!-- Created with Inkscape (http://www.inkscape.org/) -->

<svg
   width="43.017902mm"
   height="26.686701mm"
   viewBox="0 0 43.017902 26.686701"
   version="1.1"
   id="svg41666"
   inkscape:version="1.1.2 (b8e25be833, 2022-02-05)"
   sodipodi:docname="EightFlashing.svg"
   xmlns:inkscape="http://www.inkscape.org/namespaces/inkscape"
   xmlns:sodipodi="http://sodipodi.sourceforge.net/DTD/sodipodi-0.dtd"
   xmlns="http://www.w3.org/2000/svg"
   xmlns:svg="http://www.w3.org/2000/svg">
  <sodipodi:namedview
     id="namedview41668"
     pagecolor="#ffffff"
     bordercolor="#666666"
     borderopacity="1.0"
     inkscape:pageshadow="2"
     inkscape:pageopacity="0.0"
     inkscape:pagecheckerboard="0"
     inkscape:document-units="mm"
     showgrid="false"
     inkscape:zoom="0.69664703"
     inkscape:cx="261.96911"
     inkscape:cy="-51.676098"
     inkscape:window-width="1920"
     inkscape:window-height="986"
     inkscape:window-x="-11"
     inkscape:window-y="-11"
     inkscape:window-maximized="1"
     inkscape:current-layer="layer1" />
  <defs
     id="defs41663">
    <rect
       x="87.562279"
       y="226.80066"
       width="37.321632"
       height="48.805195"
       id="rect2164-4-0-6-1-8-5" />
  </defs>
  <g
     inkscape:label="Layer 1"
     inkscape:groupmode="layer"
     id="layer1"
     transform="translate(-35.840149,-162.12212)">
    <path
       id="rect45-1-7-9-8-0-1"
       style="fill:#ff0000;fill-rule:evenodd;stroke:#ffffff;stroke-width:7.55906;stroke-miterlimit:4;stroke-dasharray:none;stroke-opacity:1"
       d="M 3.7792969 3.7792969 L 3.7792969 97.083984 L 42.537109 97.083984 L 42.537109 3.7792969 L 3.7792969 3.7792969 z M 120.05078 3.7792969 L 120.05078 97.083984 L 158.80859 97.083984 L 158.80859 3.7792969 L 120.05078 3.7792969 z M 79.175781 9.4511719 C 71.549165 9.4511719 65.265407 11.456558 60.324219 15.466797 C 55.383031 19.477036 52.912109 24.4905 52.912109 30.505859 C 52.912109 34.58771 53.933684 37.989704 55.974609 40.710938 C 58.05134 43.432171 61.236518 45.938903 65.533203 48.230469 L 65.533203 48.552734 C 60.842655 50.665271 57.20887 53.528155 54.630859 57.144531 C 52.052848 60.725102 50.763672 64.735873 50.763672 69.175781 C 50.763672 76.157894 53.325096 81.887568 58.445312 86.363281 C 63.601335 90.838995 70.5108 93.076172 79.175781 93.076172 C 87.339483 93.076172 94.107659 90.784303 99.478516 86.201172 C 104.88518 81.618041 107.58789 75.871439 107.58789 68.960938 C 107.58789 64.091361 106.2629 60.08059 103.61328 56.929688 C 100.96366 53.778785 97.13194 51.128811 92.119141 48.980469 L 92.119141 48.660156 C 96.487437 46.690842 99.800881 43.969247 102.05664 40.496094 C 104.3124 36.987134 105.43945 33.423017 105.43945 29.806641 C 105.43945 23.898699 103.05903 19.03043 98.296875 15.199219 C 93.534716 11.368008 87.160454 9.4511719 79.175781 9.4511719 z M 79.123047 17.347656 C 83.706178 17.347656 87.464323 18.493591 90.400391 20.785156 C 93.372264 23.040916 94.859375 26.082852 94.859375 29.914062 C 94.859375 33.243993 94.178976 36.180451 92.818359 38.722656 C 91.457742 41.264862 89.00375 43.718854 85.458984 46.082031 C 83.095808 45.401723 80.66265 44.542272 78.15625 43.503906 C 75.685656 42.465541 73.787702 41.623018 72.462891 40.978516 C 69.526823 39.510482 67.323503 37.846272 65.855469 35.984375 C 64.42324 34.086672 63.707031 31.847542 63.707031 29.269531 C 63.707031 25.617349 65.13945 22.718655 68.003906 20.570312 C 70.904169 18.42197 74.611528 17.347656 79.123047 17.347656 z M 72.300781 51.021484 C 75.630712 52.238878 78.299568 53.188832 80.304688 53.869141 C 82.309807 54.549449 84.153069 55.282587 85.835938 56.070312 C 90.061011 58.075432 92.890037 60.080818 94.322266 62.085938 C 95.7903 64.055251 96.523438 66.688297 96.523438 69.982422 C 96.523438 74.67297 94.947777 78.359494 91.796875 81.044922 C 88.681778 83.73035 84.510837 85.074219 79.283203 85.074219 C 74.162987 85.074219 69.937353 83.498559 66.607422 80.347656 C 63.277491 77.196754 61.613281 73.204864 61.613281 68.371094 C 61.613281 64.575689 62.580164 61.173695 64.513672 58.166016 C 66.482986 55.158336 69.078267 52.775964 72.300781 51.021484 z "
       transform="matrix(0.26458333,0,0,0.26458333,35.840149,162.12212)" />
  </g>
</svg>
