<?xml version="1.0" encoding="UTF-8" standalone="no"?>
<!-- Created with Inkscape (http://www.inkscape.org/) -->

<svg
   width="41.017826mm"
   height="24.686613mm"
   viewBox="0 0 41.017826 24.686613"
   version="1.1"
   id="svg40630"
   inkscape:version="1.1.2 (b8e25be833, 2022-02-05)"
   sodipodi:docname="EightOff.svg"
   xmlns:inkscape="http://www.inkscape.org/namespaces/inkscape"
   xmlns:sodipodi="http://sodipodi.sourceforge.net/DTD/sodipodi-0.dtd"
   xmlns="http://www.w3.org/2000/svg"
   xmlns:svg="http://www.w3.org/2000/svg">
  <sodipodi:namedview
     id="namedview40632"
     pagecolor="#ffffff"
     bordercolor="#666666"
     borderopacity="1.0"
     inkscape:pageshadow="2"
     inkscape:pageopacity="0.0"
     inkscape:pagecheckerboard="0"
     inkscape:document-units="mm"
     showgrid="false"
     inkscape:zoom="0.69664703"
     inkscape:cx="167.22959"
     inkscape:cy="-78.949594"
     inkscape:window-width="1920"
     inkscape:window-height="986"
     inkscape:window-x="-11"
     inkscape:window-y="-11"
     inkscape:window-maximized="1"
     inkscape:current-layer="layer1" />
  <defs
     id="defs40627">
    <rect
       x="87.562279"
       y="226.80066"
       width="37.321632"
       height="48.805195"
       id="rect2164-40-9" />
  </defs>
  <g
     inkscape:label="Layer 1"
     inkscape:groupmode="layer"
     id="layer1"
     transform="translate(-60.7673,-169.1989)">
    <path
       id="rect45-19-9"
       style="fill:#c8c8c8;fill-opacity:1;fill-rule:evenodd;stroke-width:0.999995"
       d="M 0 0 L 0 93.304688 L 38.757812 93.304688 L 38.757812 0 L 0 0 z M 116.27148 0 L 116.27148 93.304688 L 155.02734 93.304688 L 155.02734 0 L 116.27148 0 z M 75.396484 5.671875 C 67.769883 5.671875 61.4861 7.6772747 56.544922 11.6875 C 51.603744 15.697725 49.132812 20.711225 49.132812 26.726562 C 49.132812 30.808399 50.152438 34.208463 52.193359 36.929688 C 54.270086 39.650912 57.45723 42.157661 61.753906 44.449219 L 61.753906 44.771484 C 57.063368 46.884014 53.429568 49.74887 50.851562 53.365234 C 48.273557 56.945793 46.984375 60.956592 46.984375 65.396484 C 46.984375 72.378573 49.543856 78.106333 54.664062 82.582031 C 59.820074 87.057729 66.73152 89.296875 75.396484 89.296875 C 83.56017 89.296875 90.32642 87.00499 95.697266 82.421875 C 101.10392 77.83876 103.80859 72.092118 103.80859 65.181641 C 103.80859 60.312081 102.4836 56.301282 99.833984 53.150391 C 97.184367 49.999499 93.352633 47.349507 88.339844 45.201172 L 88.339844 44.878906 C 92.708132 42.909599 96.019635 40.187985 98.275391 36.714844 C 100.53115 33.205897 101.66016 29.643708 101.66016 26.027344 C 101.66016 20.119423 99.277775 15.251119 94.515625 11.419922 C 89.753475 7.5887245 83.381142 5.671875 75.396484 5.671875 z M 75.341797 13.566406 C 79.924919 13.566406 83.685031 14.712349 86.621094 17.003906 C 89.592962 19.259658 91.078125 22.303568 91.078125 26.134766 C 91.078125 29.464685 90.397724 32.401163 89.037109 34.943359 C 87.676495 37.485556 85.224446 39.937613 81.679688 42.300781 C 79.316515 41.620475 76.881395 40.761018 74.375 39.722656 C 71.904411 38.684294 70.006449 37.843719 68.681641 37.199219 C 65.745578 35.73119 63.544203 34.066968 62.076172 32.205078 C 60.643946 30.307382 59.927734 28.068236 59.927734 25.490234 C 59.927734 21.838065 61.360158 18.937397 64.224609 16.789062 C 67.124866 14.640728 70.830286 13.566406 75.341797 13.566406 z M 68.521484 47.242188 C 71.851409 48.459577 74.518322 49.409538 76.523438 50.089844 C 78.528553 50.77015 80.373776 51.503293 82.056641 52.291016 C 86.281706 54.296128 89.10879 56.301528 90.541016 58.306641 C 92.009047 60.275948 92.744141 62.907058 92.744141 66.201172 C 92.744141 70.891703 91.168474 74.580206 88.017578 77.265625 C 84.902488 79.951044 80.73153 81.292969 75.503906 81.292969 C 70.3837 81.292969 66.158049 79.717298 62.828125 76.566406 C 59.498201 73.415515 57.833984 69.423597 57.833984 64.589844 C 57.833984 60.794452 58.800871 57.394388 60.734375 54.386719 C 62.703685 51.37905 65.298977 48.996661 68.521484 47.242188 z "
       transform="matrix(0.26458333,0,0,0.26458333,60.7673,169.1989)" />
  </g>
</svg>
