<?xml version="1.0" encoding="UTF-8" standalone="no"?>
<!-- Created with Inkscape (http://www.inkscape.org/) -->

<svg
   width="41.017906mm"
   height="24.686701mm"
   viewBox="0 0 41.017906 24.686701"
   version="1.1"
   id="svg41028"
   inkscape:version="1.1.2 (b8e25be833, 2022-02-05)"
   sodipodi:docname="Eight.svg"
   xmlns:inkscape="http://www.inkscape.org/namespaces/inkscape"
   xmlns:sodipodi="http://sodipodi.sourceforge.net/DTD/sodipodi-0.dtd"
   xmlns="http://www.w3.org/2000/svg"
   xmlns:svg="http://www.w3.org/2000/svg">
  <sodipodi:namedview
     id="namedview41030"
     pagecolor="#ffffff"
     bordercolor="#666666"
     borderopacity="1.0"
     inkscape:pageshadow="2"
     inkscape:pageopacity="0.0"
     inkscape:pagecheckerboard="0"
     inkscape:document-units="mm"
     showgrid="false"
     inkscape:zoom="0.69664703"
     inkscape:cx="207.42211"
     inkscape:cy="0"
     inkscape:window-width="1920"
     inkscape:window-height="986"
     inkscape:window-x="-11"
     inkscape:window-y="-11"
     inkscape:window-maximized="1"
     inkscape:current-layer="layer1" />
  <defs
     id="defs41025">
    <rect
       x="87.562279"
       y="226.80066"
       width="37.321632"
       height="48.805195"
       id="rect2164-40" />
  </defs>
  <g
     inkscape:label="Layer 1"
     inkscape:groupmode="layer"
     id="layer1"
     transform="translate(-50.132992,-148.3101)">
    <path
       id="rect45-19"
       style="fill:#ff0000;fill-rule:evenodd;stroke-width:0.999999"
       d="M 0 0 L 0 93.304688 L 38.757812 93.304688 L 38.757812 0 L 0 0 z M 116.27148 0 L 116.27148 93.304688 L 155.02734 93.304688 L 155.02734 0 L 116.27148 0 z M 75.396484 5.671875 C 67.769868 5.671875 61.48611 7.6772606 56.544922 11.6875 C 51.603734 15.697739 49.132812 20.711203 49.132812 26.726562 C 49.132813 30.808413 50.152434 34.210407 52.193359 36.931641 C 54.27009 39.652874 57.457221 42.157653 61.753906 44.449219 L 61.753906 44.771484 C 57.063358 46.884021 53.429574 49.748858 50.851562 53.365234 C 48.273551 56.945805 46.984375 60.956577 46.984375 65.396484 C 46.984375 72.378598 49.543846 78.108271 54.664062 82.583984 C 59.820085 87.059698 66.731503 89.296875 75.396484 89.296875 C 83.560186 89.296875 90.326409 87.005006 95.697266 82.421875 C 101.10393 77.838744 103.80859 72.092142 103.80859 65.181641 C 103.80859 60.312064 102.48361 56.301293 99.833984 53.150391 C 97.184362 49.999488 93.352643 47.349514 88.339844 45.201172 L 88.339844 44.878906 C 92.70814 42.909592 96.019631 40.189951 98.275391 36.716797 C 100.53115 33.207837 101.66016 29.64372 101.66016 26.027344 C 101.66016 20.119402 99.277784 15.251133 94.515625 11.419922 C 89.753466 7.588711 83.381157 5.671875 75.396484 5.671875 z M 75.341797 13.568359 C 79.924928 13.568359 83.685026 14.714294 86.621094 17.005859 C 89.592968 19.261619 91.080078 22.303555 91.080078 26.134766 C 91.080078 29.464697 90.399679 32.401154 89.039062 34.943359 C 87.678446 37.485565 85.224453 39.937604 81.679688 42.300781 C 79.316511 41.620473 76.8814 40.761022 74.375 39.722656 C 71.904406 38.684291 70.008405 37.843722 68.683594 37.199219 C 65.747526 35.731185 63.544206 34.066975 62.076172 32.205078 C 60.643944 30.307376 59.927734 28.068245 59.927734 25.490234 C 59.927734 21.838052 61.360153 18.939358 64.224609 16.791016 C 67.124872 14.642673 70.830278 13.568359 75.341797 13.568359 z M 68.521484 47.242188 C 71.851415 48.459582 74.518318 49.409535 76.523438 50.089844 C 78.528557 50.770152 80.373772 51.50329 82.056641 52.291016 C 86.281714 54.296135 89.11074 56.301521 90.542969 58.306641 C 92.011003 60.275955 92.744141 62.907047 92.744141 66.201172 C 92.744141 70.89172 91.16848 74.580197 88.017578 77.265625 C 84.902481 79.951053 80.73154 81.294922 75.503906 81.294922 C 70.38369 81.294922 66.158056 79.719262 62.828125 76.568359 C 59.498194 73.417457 57.833984 69.423614 57.833984 64.589844 C 57.833984 60.794439 58.800867 57.394398 60.734375 54.386719 C 62.703689 51.379039 65.298971 48.996667 68.521484 47.242188 z "
       transform="matrix(0.26458333,0,0,0.26458333,50.132992,148.3101)" />
  </g>
</svg>
