<?xml version="1.0" encoding="UTF-8" standalone="no"?>
<!-- Created with Inkscape (http://www.inkscape.org/) -->

<svg
   width="41.017826mm"
   height="24.686613mm"
   viewBox="0 0 41.017826 24.686613"
   version="1.1"
   id="svg40386"
   inkscape:version="1.1.2 (b8e25be833, 2022-02-05)"
   sodipodi:docname="FiveOff.svg"
   xmlns:inkscape="http://www.inkscape.org/namespaces/inkscape"
   xmlns:sodipodi="http://sodipodi.sourceforge.net/DTD/sodipodi-0.dtd"
   xmlns="http://www.w3.org/2000/svg"
   xmlns:svg="http://www.w3.org/2000/svg">
  <sodipodi:namedview
     id="namedview40388"
     pagecolor="#ffffff"
     bordercolor="#666666"
     borderopacity="1.0"
     inkscape:pageshadow="2"
     inkscape:pageopacity="0.0"
     inkscape:pagecheckerboard="0"
     inkscape:document-units="mm"
     showgrid="false"
     inkscape:zoom="0.69664703"
     inkscape:cx="395.46569"
     inkscape:cy="10.04813"
     inkscape:window-width="1920"
     inkscape:window-height="986"
     inkscape:window-x="-11"
     inkscape:window-y="-11"
     inkscape:window-maximized="1"
     inkscape:current-layer="layer1" />
  <defs
     id="defs40383">
    <rect
       x="87.562279"
       y="226.80066"
       width="37.321632"
       height="48.805195"
       id="rect2164-1-7" />
  </defs>
  <g
     inkscape:label="Layer 1"
     inkscape:groupmode="layer"
     id="layer1"
     transform="translate(-0.37983498,-145.65158)">
    <path
       id="rect45-9-7"
       style="fill:#c8c8c8;fill-opacity:1;fill-rule:evenodd;stroke-width:0.999995"
       d="M 0 0 L 0 93.304688 L 38.757812 93.304688 L 38.757812 0 L 0 0 z M 116.27148 0 L 116.27148 93.304688 L 155.02734 93.304688 L 155.02734 0 L 116.27148 0 z M 53.912109 7.4980469 L 53.912109 48.693359 C 56.024642 48.263692 58.531384 47.833964 61.431641 47.404297 C 64.367703 46.97463 67.411604 46.759766 70.5625 46.759766 C 73.856619 46.759766 76.828898 47.046251 79.478516 47.619141 C 82.163939 48.156224 84.436935 49.104232 86.298828 50.464844 C 87.981693 51.610622 89.287803 53.131601 90.21875 55.029297 C 91.185502 56.926993 91.669922 59.254689 91.669922 62.011719 C 91.669922 64.84036 91.257123 67.330181 90.433594 69.478516 C 89.64587 71.626851 88.466073 73.470126 86.890625 75.009766 C 85.028732 76.800045 82.897025 78.05342 80.498047 78.769531 C 78.134875 79.485643 75.682825 79.84375 73.140625 79.84375 C 69.345227 79.84375 65.477683 79.199157 61.539062 77.910156 C 57.600442 76.58535 54.162625 74.99275 51.226562 73.130859 L 50.474609 73.130859 L 50.474609 84.462891 C 53.267449 85.751892 56.688338 86.843142 60.734375 87.738281 C 64.780412 88.669226 68.987181 89.134766 73.355469 89.134766 C 78.046007 89.134766 82.164226 88.473244 85.708984 87.148438 C 89.289548 85.787825 92.367307 83.854047 94.945312 81.347656 C 97.308485 79.020293 99.170636 76.155437 100.53125 72.753906 C 101.89186 69.352376 102.57227 65.790187 102.57227 62.066406 C 102.57227 57.375875 101.78443 53.472508 100.20898 50.357422 C 98.633536 47.242336 96.413279 44.699776 93.548828 42.730469 C 90.8276 40.868578 87.838391 39.579393 84.580078 38.863281 C 81.321765 38.111364 77.525842 37.736328 73.193359 37.736328 C 72.011773 37.736328 70.61516 37.772139 69.003906 37.84375 C 67.392653 37.915361 65.818939 38.022793 64.279297 38.166016 L 64.279297 16.896484 L 102.03516 16.896484 L 102.03516 7.4980469 L 53.912109 7.4980469 z "
       transform="matrix(0.26458333,0,0,0.26458333,0.37983498,145.65158)" />
  </g>
</svg>
