<?xml version="1.0" encoding="UTF-8" standalone="no"?>
<!-- Created with Inkscape (http://www.inkscape.org/) -->

<svg
   width="43.017902mm"
   height="26.686701mm"
   viewBox="0 0 43.017902 26.686701"
   version="1.1"
   id="svg46823"
   inkscape:version="1.1.2 (b8e25be833, 2022-02-05)"
   sodipodi:docname="FiveFlashing.svg"
   xmlns:inkscape="http://www.inkscape.org/namespaces/inkscape"
   xmlns:sodipodi="http://sodipodi.sourceforge.net/DTD/sodipodi-0.dtd"
   xmlns="http://www.w3.org/2000/svg"
   xmlns:svg="http://www.w3.org/2000/svg">
  <sodipodi:namedview
     id="namedview46825"
     pagecolor="#ffffff"
     bordercolor="#666666"
     borderopacity="1.0"
     inkscape:pageshadow="2"
     inkscape:pageopacity="0.0"
     inkscape:pagecheckerboard="0"
     inkscape:document-units="mm"
     showgrid="false"
     inkscape:zoom="1.3932941"
     inkscape:cx="29.067804"
     inkscape:cy="43.063414"
     inkscape:window-width="1920"
     inkscape:window-height="986"
     inkscape:window-x="-11"
     inkscape:window-y="-11"
     inkscape:window-maximized="1"
     inkscape:current-layer="layer1" />
  <defs
     id="defs46820">
    <rect
       x="87.562279"
       y="226.80066"
       width="37.321632"
       height="48.805195"
       id="rect2164-4-0" />
  </defs>
  <g
     inkscape:label="Layer 1"
     inkscape:groupmode="layer"
     id="layer1"
     transform="translate(-89.011513,-129.45972)">
    <path
       id="rect45-1-7"
       style="fill:#ffff00;fill-rule:evenodd;stroke:#ffffff;stroke-width:7.55906;stroke-miterlimit:4;stroke-dasharray:none;stroke-opacity:1"
       d="M 3.7792969 3.7792969 L 3.7792969 97.083984 L 42.537109 97.083984 L 42.537109 3.7792969 L 3.7792969 3.7792969 z M 120.05078 3.7792969 L 120.05078 97.083984 L 158.80859 97.083984 L 158.80859 3.7792969 L 120.05078 3.7792969 z M 57.691406 11.277344 L 57.691406 52.472656 C 59.803943 52.042988 62.310675 51.613262 65.210938 51.183594 C 68.147006 50.753925 71.190895 50.539062 74.341797 50.539062 C 77.635922 50.539062 80.60819 50.825546 83.257812 51.398438 C 85.943241 51.935523 88.216228 52.883524 90.078125 54.244141 C 91.760993 55.389923 93.069052 56.912844 94 58.810547 C 94.966754 60.708249 95.449219 63.035929 95.449219 65.792969 C 95.449219 68.62162 95.038375 71.10947 94.214844 73.257812 C 93.427118 75.406155 92.245373 77.249417 90.669922 78.789062 C 88.808025 80.579348 86.676326 81.832714 84.277344 82.548828 C 81.914167 83.264942 79.462127 83.623047 76.919922 83.623047 C 73.124517 83.623047 69.256987 82.978459 65.318359 81.689453 C 61.379731 80.364642 57.943881 78.772053 55.007812 76.910156 L 54.255859 76.910156 L 54.255859 88.242188 C 57.048705 89.531193 60.467627 90.624389 64.513672 91.519531 C 68.559717 92.45048 72.766469 92.914062 77.134766 92.914062 C 81.825313 92.914063 85.943516 92.252546 89.488281 90.927734 C 93.068852 89.567117 96.148551 87.633353 98.726562 85.126953 C 101.08974 82.799582 102.94993 79.934745 104.31055 76.533203 C 105.67116 73.131661 106.35156 69.569497 106.35156 65.845703 C 106.35156 61.155155 105.56373 57.251815 103.98828 54.136719 C 102.41283 51.021622 100.19453 48.481033 97.330078 46.511719 C 94.608844 44.649822 91.617694 43.360645 88.359375 42.644531 C 85.101056 41.892611 81.3071 41.515625 76.974609 41.515625 C 75.793021 41.515625 74.396413 41.551435 72.785156 41.623047 C 71.173899 41.694658 69.598239 41.80209 68.058594 41.945312 L 68.058594 20.677734 L 105.81445 20.677734 L 105.81445 11.277344 L 57.691406 11.277344 z "
       transform="matrix(0.26458333,0,0,0.26458333,89.011513,129.45972)" />
  </g>
</svg>
