<?xml version="1.0" encoding="UTF-8" standalone="no"?>
<!-- Created with Inkscape (http://www.inkscape.org/) -->

<svg
   width="41.017906mm"
   height="24.686701mm"
   viewBox="0 0 41.017906 24.686701"
   version="1.1"
   id="svg40752"
   inkscape:version="1.1.2 (b8e25be833, 2022-02-05)"
   sodipodi:docname="Five.svg"
   xmlns:inkscape="http://www.inkscape.org/namespaces/inkscape"
   xmlns:sodipodi="http://sodipodi.sourceforge.net/DTD/sodipodi-0.dtd"
   xmlns="http://www.w3.org/2000/svg"
   xmlns:svg="http://www.w3.org/2000/svg">
  <sodipodi:namedview
     id="namedview40754"
     pagecolor="#ffffff"
     bordercolor="#666666"
     borderopacity="1.0"
     inkscape:pageshadow="2"
     inkscape:pageopacity="0.0"
     inkscape:pagecheckerboard="0"
     inkscape:document-units="mm"
     showgrid="false"
     inkscape:zoom="0.69664703"
     inkscape:cx="369.62764"
     inkscape:cy="-31.579837"
     inkscape:window-width="1920"
     inkscape:window-height="986"
     inkscape:window-x="-11"
     inkscape:window-y="-11"
     inkscape:window-maximized="1"
     inkscape:current-layer="layer1" />
  <defs
     id="defs40749">
    <rect
       x="87.562279"
       y="226.80066"
       width="37.321632"
       height="48.805195"
       id="rect2164-1" />
  </defs>
  <g
     inkscape:label="Layer 1"
     inkscape:groupmode="layer"
     id="layer1"
     transform="translate(-7.2161112,-157.04539)">
    <path
       id="rect45-9"
       style="fill:#ffff00;fill-rule:evenodd;stroke-width:0.999999"
       d="M 0 0 L 0 93.304688 L 38.757812 93.304688 L 38.757812 0 L 0 0 z M 116.27148 0 L 116.27148 93.304688 L 155.02734 93.304688 L 155.02734 0 L 116.27148 0 z M 53.912109 7.4980469 L 53.912109 48.693359 C 56.024646 48.263691 58.531378 47.833965 61.431641 47.404297 C 64.367709 46.974628 67.411598 46.759766 70.5625 46.759766 C 73.856625 46.759766 76.828893 47.046249 79.478516 47.619141 C 82.163944 48.156226 84.436931 49.104227 86.298828 50.464844 C 87.981696 51.610626 89.289755 53.133547 90.220703 55.03125 C 91.187457 56.928953 91.669922 59.254679 91.669922 62.011719 C 91.669922 64.84037 91.259078 67.330173 90.435547 69.478516 C 89.647821 71.626858 88.466076 73.47012 86.890625 75.009766 C 85.028728 76.800051 82.897029 78.053417 80.498047 78.769531 C 78.13487 79.485645 75.68283 79.84375 73.140625 79.84375 C 69.34522 79.84375 65.47769 79.199162 61.539062 77.910156 C 57.600435 76.585345 54.162631 74.992756 51.226562 73.130859 L 50.474609 73.130859 L 50.474609 84.462891 C 53.267455 85.751896 56.68833 86.843139 60.734375 87.738281 C 64.78042 88.66923 68.987172 89.134766 73.355469 89.134766 C 78.046017 89.134766 82.164219 88.473249 85.708984 87.148438 C 89.289555 85.787821 92.367301 83.854056 94.945312 81.347656 C 97.308489 79.020285 99.170633 76.155449 100.53125 72.753906 C 101.89187 69.352364 102.57227 65.7902 102.57227 62.066406 C 102.57227 57.375858 101.78444 53.472519 100.20898 50.357422 C 98.633533 47.242325 96.413285 44.699783 93.548828 42.730469 C 90.827594 40.868572 87.838398 39.581349 84.580078 38.865234 C 81.321759 38.113314 77.52585 37.736328 73.193359 37.736328 C 72.011771 37.736328 70.617116 37.772139 69.005859 37.84375 C 67.394602 37.915361 65.818942 38.022793 64.279297 38.166016 L 64.279297 16.898438 L 102.03516 16.898438 L 102.03516 7.4980469 L 53.912109 7.4980469 z "
       transform="matrix(0.26458333,0,0,0.26458333,7.2161112,157.04539)" />
  </g>
</svg>
