<?xml version="1.0" encoding="UTF-8" standalone="no"?>
<!-- Created with Inkscape (http://www.inkscape.org/) -->

<svg
   width="41.017845mm"
   height="24.686613mm"
   viewBox="0 0 41.017845 24.686613"
   version="1.1"
   id="svg40393"
   inkscape:version="1.1.2 (b8e25be833, 2022-02-05)"
   sodipodi:docname="FourOff.svg"
   xmlns:inkscape="http://www.inkscape.org/namespaces/inkscape"
   xmlns:sodipodi="http://sodipodi.sourceforge.net/DTD/sodipodi-0.dtd"
   xmlns="http://www.w3.org/2000/svg"
   xmlns:svg="http://www.w3.org/2000/svg">
  <sodipodi:namedview
     id="namedview40395"
     pagecolor="#ffffff"
     bordercolor="#666666"
     borderopacity="1.0"
     inkscape:pageshadow="2"
     inkscape:pageopacity="0.0"
     inkscape:pagecheckerboard="0"
     inkscape:document-units="mm"
     showgrid="false"
     inkscape:zoom="0.69664703"
     inkscape:cx="69.619187"
     inkscape:cy="-27.273496"
     inkscape:window-width="1920"
     inkscape:window-height="986"
     inkscape:window-x="-11"
     inkscape:window-y="-11"
     inkscape:window-maximized="1"
     inkscape:current-layer="layer1" />
  <defs
     id="defs40390">
    <rect
       x="87.562279"
       y="226.80066"
       width="37.321632"
       height="48.805195"
       id="rect2164-4-3" />
  </defs>
  <g
     inkscape:label="Layer 1"
     inkscape:groupmode="layer"
     id="layer1"
     transform="translate(-86.593384,-155.52626)">
    <path
       id="rect45-1-8"
       style="fill:#c8c8c8;fill-opacity:1;fill-rule:evenodd;stroke-width:0.999995"
       d="M 0 0 L 0 93.304688 L 38.757812 93.304688 L 38.757812 0 L 0 0 z M 116.27148 0 L 116.27148 93.304688 L 155.02734 93.304688 L 155.02734 0 L 116.27148 0 z M 83.291016 7.4980469 L 44.568359 52.613281 L 44.568359 64.966797 L 82.861328 64.966797 L 82.861328 87.470703 L 93.173828 87.470703 L 93.173828 64.966797 L 105.04297 64.966797 L 105.04297 56.373047 L 93.173828 56.373047 L 93.173828 7.4980469 L 83.291016 7.4980469 z M 82.861328 20.28125 L 82.861328 56.373047 L 51.871094 56.373047 L 82.861328 20.28125 z "
       transform="matrix(0.26458333,0,0,0.26458333,86.593384,155.52626)" />
  </g>
</svg>
