<?xml version="1.0" encoding="UTF-8" standalone="no"?>
<!-- Created with Inkscape (http://www.inkscape.org/) -->

<svg
   width="41.01791mm"
   height="24.686701mm"
   viewBox="0 0 41.01791 24.686701"
   version="1.1"
   id="svg40813"
   inkscape:version="1.1.2 (b8e25be833, 2022-02-05)"
   sodipodi:docname="Six.svg"
   xmlns:inkscape="http://www.inkscape.org/namespaces/inkscape"
   xmlns:sodipodi="http://sodipodi.sourceforge.net/DTD/sodipodi-0.dtd"
   xmlns="http://www.w3.org/2000/svg"
   xmlns:svg="http://www.w3.org/2000/svg">
  <sodipodi:namedview
     id="namedview40815"
     pagecolor="#ffffff"
     bordercolor="#666666"
     borderopacity="1.0"
     inkscape:pageshadow="2"
     inkscape:pageopacity="0.0"
     inkscape:pagecheckerboard="0"
     inkscape:document-units="mm"
     showgrid="false"
     inkscape:zoom="0.69664703"
     inkscape:cx="-66.748293"
     inkscape:cy="182.30179"
     inkscape:window-width="1920"
     inkscape:window-height="986"
     inkscape:window-x="-11"
     inkscape:window-y="-11"
     inkscape:window-maximized="1"
     inkscape:current-layer="layer1" />
  <defs
     id="defs40810">
    <rect
       x="87.562279"
       y="226.80066"
       width="37.321632"
       height="48.805195"
       id="rect2164-98" />
  </defs>
  <g
     inkscape:label="Layer 1"
     inkscape:groupmode="layer"
     id="layer1"
     transform="translate(-122.67391,-100.45588)">
    <path
       id="rect45-7"
       style="fill:#ffff00;fill-rule:evenodd;stroke-width:0.999999"
       d="M 0 0 L 0 93.304688 L 38.757812 93.304688 L 38.757812 0 L 0 0 z M 116.27148 0 L 116.27148 93.304688 L 155.0293 93.304688 L 155.0293 0 L 116.27148 0 z M 86.943359 5.9941406 C 80.319303 5.9941406 74.519962 7.1400753 69.542969 9.4316406 C 64.565975 11.6874 60.500512 14.838721 57.349609 18.884766 C 54.019678 23.145645 51.584567 28.015867 50.044922 33.494141 C 48.541082 38.972414 47.791016 45.256173 47.791016 52.345703 C 47.791016 59.256205 48.612703 65.162977 50.259766 70.068359 C 51.942634 74.973741 54.325006 78.912892 57.404297 81.884766 C 59.874891 84.283748 62.720846 86.0912 65.943359 87.308594 C 69.165873 88.525988 72.746919 89.134766 76.685547 89.134766 C 84.455386 89.134766 91.006746 86.575294 96.341797 81.455078 C 101.71265 76.299056 104.39844 69.657193 104.39844 61.529297 C 104.39844 56.767138 103.59368 52.720556 101.98242 49.390625 C 100.40697 46.060694 98.04348 43.303289 94.892578 41.119141 C 92.171344 39.221438 89.504442 37.970025 86.890625 37.361328 C 84.312614 36.716825 81.321464 36.394531 77.919922 36.394531 C 74.088711 36.394531 70.705599 36.876996 67.769531 37.84375 C 64.869269 38.774698 61.915883 40.152424 58.908203 41.978516 C 59.660123 33.779008 62.327026 27.280387 66.910156 22.482422 C 71.493287 17.648651 77.633804 15.232422 85.332031 15.232422 C 87.444568 15.232422 89.504646 15.483095 91.509766 15.984375 C 93.550691 16.449849 95.071659 16.951196 96.074219 17.488281 L 96.611328 17.488281 L 96.611328 7.2304688 C 95.143294 6.7649945 93.693947 6.4427004 92.261719 6.2636719 C 90.82949 6.0846433 89.055896 5.9941406 86.943359 5.9941406 z M 75.396484 45.201172 C 77.580633 45.201172 79.674568 45.380224 81.679688 45.738281 C 83.684807 46.096338 85.511141 46.848358 87.158203 47.994141 C 89.413963 49.605398 91.025433 51.503352 91.992188 53.6875 C 92.994747 55.871648 93.496094 58.629053 93.496094 61.958984 C 93.496094 67.902732 92.010936 72.467589 89.039062 75.654297 C 86.067189 78.805199 81.984797 80.380859 76.792969 80.380859 C 74.537209 80.380859 72.443274 80.022755 70.509766 79.306641 C 68.612063 78.554721 66.838469 77.391857 65.191406 75.816406 C 63.150481 73.918704 61.53901 71.340351 60.357422 68.082031 C 59.211639 64.787906 58.638672 60.311599 58.638672 54.654297 C 58.638672 53.54432 58.657554 52.63213 58.693359 51.916016 C 58.729165 51.164096 58.781904 50.393194 58.853516 49.605469 C 61.610555 48.101629 64.29634 46.991505 66.910156 46.275391 C 69.523973 45.559276 72.352999 45.201172 75.396484 45.201172 z "
       transform="matrix(0.26458333,0,0,0.26458333,122.67391,100.45588)" />
  </g>
</svg>
