<?xml version="1.0" encoding="UTF-8" standalone="no"?>
<!-- Created with Inkscape (http://www.inkscape.org/) -->

<svg
   width="210mm"
   height="297mm"
   viewBox="0 0 210 297"
   version="1.1"
   id="svg41680"
   inkscape:version="1.1.2 (b8e25be833, 2022-02-05)"
   sodipodi:docname="SixFlashing.svg"
   xmlns:inkscape="http://www.inkscape.org/namespaces/inkscape"
   xmlns:sodipodi="http://sodipodi.sourceforge.net/DTD/sodipodi-0.dtd"
   xmlns="http://www.w3.org/2000/svg"
   xmlns:svg="http://www.w3.org/2000/svg">
  <sodipodi:namedview
     id="namedview41682"
     pagecolor="#ffffff"
     bordercolor="#666666"
     borderopacity="1.0"
     inkscape:pageshadow="2"
     inkscape:pageopacity="0.0"
     inkscape:pagecheckerboard="0"
     inkscape:document-units="mm"
     showgrid="false"
     inkscape:zoom="0.69664703"
     inkscape:cx="396.90114"
     inkscape:cy="561.25984"
     inkscape:window-width="1920"
     inkscape:window-height="986"
     inkscape:window-x="-11"
     inkscape:window-y="-11"
     inkscape:window-maximized="1"
     inkscape:current-layer="layer1" />
  <defs
     id="defs41677">
    <rect
       x="87.562279"
       y="226.80066"
       width="37.321632"
       height="48.805195"
       id="rect2164-4-0-6-5" />
  </defs>
  <g
     inkscape:label="Layer 1"
     inkscape:groupmode="layer"
     id="layer1">
    <path
       id="rect45-1-7-9-2"
       style="fill:#ffff00;fill-rule:evenodd;stroke:#ffffff;stroke-width:7.55906;stroke-miterlimit:4;stroke-dasharray:none;stroke-opacity:1"
       d="M 376.08789 712.69922 L 376.08789 806.00391 L 414.84375 806.00391 L 414.84375 712.69922 L 376.08789 712.69922 z M 492.35742 712.69922 L 492.35742 806.00391 L 531.11523 806.00391 L 531.11523 712.69922 L 492.35742 712.69922 z M 463.03125 718.69336 C 456.40719 718.69336 450.6059 719.83929 445.62891 722.13086 C 440.65191 724.38662 436.5884 727.53794 433.4375 731.58398 C 430.10757 735.84486 427.67246 740.71509 426.13281 746.19336 C 424.62897 751.67163 423.87695 757.95539 423.87695 765.04492 C 423.87695 771.95542 424.70059 777.8622 426.34766 782.76758 C 428.03052 787.67296 430.41094 791.61211 433.49023 794.58398 C 435.96083 796.98297 438.80874 798.79237 442.03125 800.00977 C 445.25376 801.22716 448.83481 801.83594 452.77344 801.83594 C 460.54328 801.83594 467.09464 799.27451 472.42969 794.1543 C 477.80054 788.99827 480.48633 782.35641 480.48633 774.22852 C 480.48633 769.46636 479.67962 765.41977 478.06836 762.08984 C 476.49291 758.75991 474.13137 756.00446 470.98047 753.82031 C 468.25923 751.92261 465.59038 750.66924 462.97656 750.06055 C 460.39855 749.41604 457.40935 749.09375 454.00781 749.09375 C 450.1766 749.09375 446.79349 749.57621 443.85742 750.54297 C 440.95716 751.47392 438.00182 752.8536 434.99414 754.67969 C 435.74606 746.48018 438.41492 739.98156 442.99805 735.18359 C 447.58118 730.34982 453.72169 727.93164 461.41992 727.93164 C 463.53246 727.93164 465.59058 728.18231 467.5957 728.68359 C 469.63663 729.14907 471.15955 729.65041 472.16211 730.1875 L 472.69922 730.1875 L 472.69922 719.92969 C 471.23118 719.46421 469.77988 719.14192 468.34766 718.96289 C 466.91543 718.78386 465.14379 718.69336 463.03125 718.69336 z M 451.48438 757.90234 C 453.66852 757.90234 455.76246 758.07944 457.76758 758.4375 C 459.7727 758.79556 461.59903 759.54758 463.24609 760.69336 C 465.50185 762.30462 467.11332 764.20257 468.08008 766.38672 C 469.08264 768.57087 469.58398 771.32827 469.58398 774.6582 C 469.58398 780.60195 468.09687 785.16681 465.125 788.35352 C 462.15313 791.50442 458.07269 793.08008 452.88086 793.08008 C 450.6251 793.08008 448.52921 792.72197 446.5957 792.00586 C 444.698 791.25394 442.92636 790.09108 441.2793 788.51562 C 439.23837 786.61792 437.6269 784.03957 436.44531 780.78125 C 435.29953 777.48712 434.72656 773.01082 434.72656 767.35352 C 434.72656 766.24354 434.74349 765.33135 434.7793 764.61523 C 434.8151 763.86331 434.86979 763.09241 434.94141 762.30469 C 437.69845 760.80085 440.38423 759.69072 442.99805 758.97461 C 445.61186 758.2585 448.44089 757.90234 451.48438 757.90234 z "
       transform="scale(0.26458333)" />
  </g>
</svg>
