<?xml version="1.0" encoding="UTF-8" standalone="no"?>
<!-- Created with Inkscape (http://www.inkscape.org/) -->

<svg
   width="43.017651mm"
   height="26.686867mm"
   viewBox="0 0 43.017651 26.686867"
   version="1.1"
   id="svg41680"
   inkscape:version="1.1.2 (b8e25be833, 2022-02-05)"
   sodipodi:docname="SixFlashing.svg"
   xmlns:inkscape="http://www.inkscape.org/namespaces/inkscape"
   xmlns:sodipodi="http://sodipodi.sourceforge.net/DTD/sodipodi-0.dtd"
   xmlns="http://www.w3.org/2000/svg"
   xmlns:svg="http://www.w3.org/2000/svg">
  <sodipodi:namedview
     id="namedview41682"
     pagecolor="#ffffff"
     bordercolor="#666666"
     borderopacity="1.0"
     inkscape:pageshadow="2"
     inkscape:pageopacity="0.0"
     inkscape:pagecheckerboard="0"
     inkscape:document-units="mm"
     showgrid="false"
     inkscape:zoom="0.69664703"
     inkscape:cx="25.120325"
     inkscape:cy="182.30179"
     inkscape:window-width="1920"
     inkscape:window-height="986"
     inkscape:window-x="-11"
     inkscape:window-y="-11"
     inkscape:window-maximized="1"
     inkscape:current-layer="layer1" />
  <defs
     id="defs41677">
    <rect
       x="87.562279"
       y="226.80066"
       width="37.321632"
       height="48.805195"
       id="rect2164-4-0-6-5" />
  </defs>
  <g
     inkscape:label="Layer 1"
     inkscape:groupmode="layer"
     id="layer1"
     transform="translate(-98.506586,-187.56833)">
    <path
       id="rect45-1-7-9-2"
       style="fill:#ffff00;fill-rule:evenodd;stroke:#ffffff;stroke-width:7.55906;stroke-miterlimit:4;stroke-dasharray:none;stroke-opacity:1"
       d="m 376.08789,712.69922 v 93.30469 h 38.75586 v -93.30469 z m 116.26953,0 v 93.30469 h 38.75781 v -93.30469 z m -29.32617,5.99414 c -6.62406,0 -12.42535,1.14593 -17.40234,3.4375 -4.977,2.25576 -9.04051,5.40708 -12.19141,9.45312 -3.32993,4.26088 -5.76504,9.13111 -7.30469,14.60938 -1.50384,5.47827 -2.25586,11.76203 -2.25586,18.85156 0,6.9105 0.82364,12.81728 2.47071,17.72266 1.68286,4.90538 4.06328,8.84453 7.14257,11.8164 2.4706,2.39899 5.31851,4.20839 8.54102,5.42579 3.22251,1.21739 6.80356,1.82617 10.74219,1.82617 7.76984,0 14.3212,-2.56143 19.65625,-7.68164 5.37085,-5.15603 8.05664,-11.79789 8.05664,-19.92578 0,-4.76216 -0.80671,-8.80875 -2.41797,-12.13868 -1.57545,-3.32993 -3.93699,-6.08538 -7.08789,-8.26953 -2.72124,-1.8977 -5.39009,-3.15107 -8.00391,-3.75976 -2.57801,-0.64451 -5.56721,-0.9668 -8.96875,-0.9668 -3.83121,0 -7.21432,0.48246 -10.15039,1.44922 -2.90026,0.93095 -5.8556,2.31063 -8.86328,4.13672 0.75192,-8.19951 3.42078,-14.69813 8.00391,-19.4961 4.58313,-4.83377 10.72364,-7.25195 18.42187,-7.25195 2.11254,0 4.17066,0.25067 6.17578,0.75195 2.04093,0.46548 3.56385,0.96682 4.56641,1.50391 h 0.53711 v -10.25781 c -1.46804,-0.46548 -2.91934,-0.78777 -4.35156,-0.9668 -1.43223,-0.17903 -3.20387,-0.26953 -5.31641,-0.26953 z m -11.54687,39.20898 c 2.18414,0 4.27808,0.1771 6.2832,0.53516 2.00512,0.35806 3.83145,1.11008 5.47851,2.25586 2.25576,1.61126 3.86723,3.50921 4.83399,5.69336 1.00256,2.18415 1.5039,4.94155 1.5039,8.27148 0,5.94375 -1.48711,10.50861 -4.45898,13.69532 -2.97187,3.1509 -7.05231,4.72656 -12.24414,4.72656 -2.25576,0 -4.35165,-0.35811 -6.28516,-1.07422 -1.8977,-0.75192 -3.66934,-1.91478 -5.3164,-3.49024 -2.04093,-1.8977 -3.6524,-4.47605 -4.83399,-7.73437 -1.14578,-3.29413 -1.71875,-7.77043 -1.71875,-13.42773 0,-1.10998 0.0169,-2.02217 0.0527,-2.73829 0.0358,-0.75192 0.0905,-1.52282 0.16211,-2.31054 2.75704,-1.50384 5.44282,-2.61397 8.05664,-3.33008 2.61381,-0.71611 5.44284,-1.07227 8.48633,-1.07227 z"
       transform="scale(0.26458333)" />
  </g>
</svg>
