<?xml version="1.0" encoding="UTF-8" standalone="no"?>
<!-- Created with Inkscape (http://www.inkscape.org/) -->

<svg
   width="41.017815mm"
   height="24.686613mm"
   viewBox="0 0 41.017815 24.686613"
   version="1.1"
   id="svg40495"
   inkscape:version="1.1.2 (b8e25be833, 2022-02-05)"
   sodipodi:docname="SixOff.svg"
   xmlns:inkscape="http://www.inkscape.org/namespaces/inkscape"
   xmlns:sodipodi="http://sodipodi.sourceforge.net/DTD/sodipodi-0.dtd"
   xmlns="http://www.w3.org/2000/svg"
   xmlns:svg="http://www.w3.org/2000/svg">
  <sodipodi:namedview
     id="namedview40497"
     pagecolor="#ffffff"
     bordercolor="#666666"
     borderopacity="1.0"
     inkscape:pageshadow="2"
     inkscape:pageopacity="0.0"
     inkscape:pagecheckerboard="0"
     inkscape:document-units="mm"
     showgrid="false"
     inkscape:zoom="0.69664703"
     inkscape:cx="-62.441951"
     inkscape:cy="-24.402602"
     inkscape:window-width="1920"
     inkscape:window-height="986"
     inkscape:window-x="-11"
     inkscape:window-y="-11"
     inkscape:window-maximized="1"
     inkscape:current-layer="layer1" />
  <defs
     id="defs40492">
    <rect
       x="87.562279"
       y="226.80066"
       width="37.321632"
       height="48.805195"
       id="rect2164-98-6" />
  </defs>
  <g
     inkscape:label="Layer 1"
     inkscape:groupmode="layer"
     id="layer1"
     transform="translate(-121.53457,-154.76666)">
    <path
       id="rect45-7-6"
       style="fill:#c8c8c8;fill-opacity:1;fill-rule:evenodd;stroke-width:0.999995"
       d="M 0 0 L 0 93.304688 L 38.757812 93.304688 L 38.757812 0 L 0 0 z M 116.27148 0 L 116.27148 93.304688 L 155.02734 93.304688 L 155.02734 0 L 116.27148 0 z M 86.943359 5.9941406 C 80.319316 5.9941406 74.517999 7.1400833 69.541016 9.4316406 C 64.564032 11.687392 60.500506 14.838735 57.349609 18.884766 C 54.019685 23.14563 51.584564 28.015886 50.044922 33.494141 C 48.541085 38.972395 47.789062 45.256198 47.789062 52.345703 C 47.789062 59.256181 48.612706 65.162994 50.259766 70.068359 C 51.942631 74.973724 54.325012 78.912902 57.404297 81.884766 C 59.874886 84.28374 62.720852 86.091204 65.943359 87.308594 C 69.165867 88.525984 72.746927 89.134766 76.685547 89.134766 C 84.45537 89.134766 91.006757 86.575277 96.341797 81.455078 C 101.71264 76.299074 104.39844 69.657164 104.39844 61.529297 C 104.39844 56.767154 103.59368 52.720544 101.98242 49.390625 C 100.40697 46.060706 98.043474 43.303281 94.892578 41.119141 C 92.17135 39.221445 89.504437 37.970023 86.890625 37.361328 C 84.312619 36.716828 81.321458 36.394531 77.919922 36.394531 C 74.088719 36.394531 70.705594 36.876999 67.769531 37.84375 C 64.869275 38.774695 61.915877 40.152431 58.908203 41.978516 C 59.660122 33.779037 62.327034 27.28037 66.910156 22.482422 C 71.493278 17.648668 77.633819 15.232422 85.332031 15.232422 C 87.444564 15.232422 89.502697 15.483097 91.507812 15.984375 C 93.548734 16.449848 95.071661 16.951198 96.074219 17.488281 L 96.611328 17.488281 L 96.611328 7.2304688 C 95.143297 6.7649962 93.691991 6.4426998 92.259766 6.2636719 C 90.82754 6.084644 89.055892 5.9941406 86.943359 5.9941406 z M 75.396484 45.201172 C 77.580628 45.201172 79.674572 45.380225 81.679688 45.738281 C 83.684803 46.096337 85.511144 46.848362 87.158203 47.994141 C 89.413958 49.605392 91.025435 51.503359 91.992188 53.6875 C 92.994745 55.871641 93.496094 58.629065 93.496094 61.958984 C 93.496094 67.902711 92.008977 72.4676 89.037109 75.654297 C 86.065241 78.805188 81.984786 80.380859 76.792969 80.380859 C 74.537214 80.380859 72.441317 80.022752 70.507812 79.306641 C 68.610114 78.554723 66.838466 77.391852 65.191406 75.816406 C 63.150485 73.91871 61.539008 71.340339 60.357422 68.082031 C 59.211641 64.787918 58.638672 60.311579 58.638672 54.654297 C 58.638672 53.544324 58.657554 52.632127 58.693359 51.916016 C 58.729165 51.164098 58.781904 50.393192 58.853516 49.605469 C 61.61055 48.101634 64.296345 46.991502 66.910156 46.275391 C 69.523968 45.559279 72.353005 45.201172 75.396484 45.201172 z "
       transform="matrix(0.26458333,0,0,0.26458333,121.53457,154.76666)" />
  </g>
</svg>
