<?xml version="1.0" encoding="UTF-8" standalone="no"?>
<!-- Created with Inkscape (http://www.inkscape.org/) -->

<svg
   width="41.017792mm"
   height="24.686613mm"
   viewBox="0 0 41.017792 24.686613"
   version="1.1"
   id="svg40325"
   inkscape:version="1.1.2 (b8e25be833, 2022-02-05)"
   sodipodi:docname="ThreeOff.svg"
   xmlns:inkscape="http://www.inkscape.org/namespaces/inkscape"
   xmlns:sodipodi="http://sodipodi.sourceforge.net/DTD/sodipodi-0.dtd"
   xmlns="http://www.w3.org/2000/svg"
   xmlns:svg="http://www.w3.org/2000/svg">
  <sodipodi:namedview
     id="namedview40327"
     pagecolor="#ffffff"
     bordercolor="#666666"
     borderopacity="1.0"
     inkscape:pageshadow="2"
     inkscape:pageopacity="0.0"
     inkscape:pagecheckerboard="0"
     inkscape:document-units="mm"
     showgrid="false"
     inkscape:zoom="0.69664703"
     inkscape:cx="-333.74146"
     inkscape:cy="275.60585"
     inkscape:window-width="1920"
     inkscape:window-height="986"
     inkscape:window-x="-11"
     inkscape:window-y="-11"
     inkscape:window-maximized="1"
     inkscape:current-layer="layer1" />
  <defs
     id="defs40322">
    <rect
       x="87.562279"
       y="226.80066"
       width="37.321632"
       height="48.805195"
       id="rect2164-0" />
  </defs>
  <g
     inkscape:label="Layer 1"
     inkscape:groupmode="layer"
     id="layer1"
     transform="translate(-193.31592,-75.389427)">
    <path
       id="rect45-14"
       style="fill:#c8c8c8;fill-opacity:1;fill-rule:evenodd;stroke-width:0.999995"
       d="M 0 0 L 0 93.304688 L 38.757812 93.304688 L 38.757812 0 L 0 0 z M 116.27148 0 L 116.27148 93.304688 L 155.02734 93.304688 L 155.02734 0 L 116.27148 0 z M 74.214844 5.8339844 C 70.240418 5.8339844 66.122199 6.371145 61.861328 7.4453125 C 57.636263 8.4836744 54.253138 9.6296171 51.710938 10.882812 L 51.710938 22.107422 L 52.248047 22.107422 C 55.649583 19.887476 59.266453 18.168562 63.097656 16.951172 C 66.92886 15.733782 70.543777 15.125 73.945312 15.125 C 76.165262 15.125 78.153727 15.304054 79.908203 15.662109 C 81.662679 16.020165 83.309967 16.664758 84.849609 17.595703 C 86.317641 18.526648 87.461627 19.72533 88.285156 21.193359 C 89.108686 22.625583 89.521484 24.308686 89.521484 26.242188 C 89.521484 30.610469 87.893079 33.940865 84.634766 36.232422 C 81.412258 38.488174 77.079176 39.615234 71.636719 39.615234 L 67.876953 39.615234 L 67.876953 48.53125 L 72.710938 48.53125 C 75.360555 48.53125 77.831486 48.746114 80.123047 49.175781 C 82.414608 49.569643 84.365309 50.321668 85.976562 51.431641 C 87.587816 52.505808 88.841187 53.992929 89.736328 55.890625 C 90.667275 57.752515 91.132813 60.114069 91.132812 62.978516 C 91.132812 65.878768 90.720014 68.278085 89.896484 70.175781 C 89.10876 72.073477 87.893153 73.811273 86.246094 75.386719 C 84.670646 76.854748 82.61056 77.962927 80.068359 78.714844 C 77.526159 79.466761 75.126849 79.84375 72.871094 79.84375 C 69.03989 79.84375 65.066867 79.180275 60.949219 77.855469 C 56.83157 76.530662 53.250511 74.866441 50.207031 72.861328 L 49.400391 72.861328 L 49.400391 84.085938 C 52.157425 85.339133 55.685745 86.485076 59.982422 87.523438 C 64.279099 88.597605 68.646038 89.134766 73.085938 89.134766 C 77.41842 89.134766 81.393396 88.544865 85.009766 87.363281 C 88.661941 86.145891 91.830202 84.283735 94.515625 81.777344 C 96.914603 79.521592 98.776754 76.8716 100.10156 73.828125 C 101.42637 70.78465 102.08984 67.437326 102.08984 63.785156 C 102.08984 60.097181 101.5338 57.089082 100.42383 54.761719 C 99.313853 52.434356 97.900311 50.500578 96.181641 48.960938 C 94.641998 47.600325 92.760965 46.473265 90.541016 45.578125 C 88.321066 44.64718 86.353436 44.038398 84.634766 43.751953 L 84.634766 43 C 88.895637 42.140666 92.582175 40.063645 95.697266 36.769531 C 98.848162 33.439612 100.42383 29.555127 100.42383 25.115234 C 100.42383 21.856926 99.762309 19.008998 98.4375 16.574219 C 97.112691 14.139439 95.160037 12.064371 92.582031 10.345703 C 90.183053 8.7702575 87.499212 7.6243148 84.527344 6.9082031 C 81.555476 6.1920915 78.117658 5.8339844 74.214844 5.8339844 z "
       transform="matrix(0.26458333,0,0,0.26458333,193.31592,75.389427)" />
  </g>
</svg>
