<?xml version="1.0" encoding="UTF-8" standalone="no"?>
<!-- Created with Inkscape (http://www.inkscape.org/) -->

<svg
   width="43.018169mm"
   height="26.686867mm"
   viewBox="0 0 43.018169 26.686867"
   version="1.1"
   id="svg41263"
   inkscape:version="1.1.2 (b8e25be833, 2022-02-05)"
   sodipodi:docname="ThreeFlashing.svg"
   xmlns:inkscape="http://www.inkscape.org/namespaces/inkscape"
   xmlns:sodipodi="http://sodipodi.sourceforge.net/DTD/sodipodi-0.dtd"
   xmlns="http://www.w3.org/2000/svg"
   xmlns:svg="http://www.w3.org/2000/svg">
  <sodipodi:namedview
     id="namedview41265"
     pagecolor="#ffffff"
     bordercolor="#666666"
     borderopacity="1.0"
     inkscape:pageshadow="2"
     inkscape:pageopacity="0.0"
     inkscape:pagecheckerboard="0"
     inkscape:document-units="mm"
     showgrid="false"
     inkscape:zoom="2.7865881"
     inkscape:cx="137.6235"
     inkscape:cy="-21.890569"
     inkscape:window-width="1920"
     inkscape:window-height="986"
     inkscape:window-x="-11"
     inkscape:window-y="-11"
     inkscape:window-maximized="1"
     inkscape:current-layer="layer1" />
  <defs
     id="defs41260">
    <rect
       x="87.562279"
       y="226.80066"
       width="37.321632"
       height="48.805195"
       id="rect2164-4-0-6" />
  </defs>
  <g
     inkscape:label="Layer 1"
     inkscape:groupmode="layer"
     id="layer1"
     transform="translate(11.634334,-172.37654)">
    <path
       id="rect45-1-7-9"
       style="fill:#00ff00;fill-rule:evenodd;stroke:#ffffff;stroke-width:7.55906;stroke-miterlimit:4;stroke-dasharray:none;stroke-opacity:1"
       d="M 3.7792969,3.7792969 V 97.083984 H 42.537109 V 3.7792969 Z m 116.2714831,0 V 97.083984 h 38.75781 V 3.7792969 Z M 77.994141,9.6132812 c -3.974434,1e-7 -8.092637,0.5371568 -12.353516,1.6113278 -4.225074,1.038366 -7.608185,2.184301 -10.150391,3.4375 v 11.22461 h 0.53711 c 3.401542,-2.219954 7.018398,-3.938856 10.849609,-5.15625 3.831211,-1.217394 7.448067,-1.826172 10.849609,-1.826172 2.219954,0 4.206458,0.179052 5.960938,0.537109 1.75448,0.358057 3.401761,1.002646 4.941406,1.933594 1.468034,0.930948 2.613969,2.131575 3.4375,3.599609 0.823532,1.432229 1.234375,3.113367 1.234375,5.046875 0,4.368297 -1.628399,7.698669 -4.886719,9.990235 -3.222513,2.255759 -7.555579,3.384765 -12.998046,3.384765 H 71.65625 v 8.914063 h 4.833984 c 2.649623,0 5.120544,0.214863 7.41211,0.644531 2.291565,0.393863 4.242258,1.145883 5.853515,2.25586 1.611257,1.074171 2.864623,2.561281 3.759766,4.458984 0.930948,1.861897 1.396484,4.225387 1.396484,7.089844 0,2.900262 -0.410843,5.29761 -1.234375,7.195312 -0.787725,1.897703 -2.005281,3.635486 -3.652343,5.210938 -1.575452,1.468034 -3.635529,2.578158 -6.177735,3.330078 -2.542205,0.75192 -4.939553,1.126953 -7.195312,1.126953 -3.831211,0 -7.806172,-0.661517 -11.923828,-1.986328 -4.117657,-1.324811 -7.698703,-2.990974 -10.742188,-4.996094 h -0.804687 v 11.226563 c 2.757039,1.253199 6.283393,2.399134 10.580078,3.4375 4.296685,1.074171 8.665561,1.609374 13.105469,1.609374 4.33249,0 8.305498,-0.589895 11.921874,-1.771484 3.652183,-1.217394 6.822385,-3.079538 9.507813,-5.585937 2.398985,-2.25576 4.259175,-4.905734 5.583985,-7.949219 1.32481,-3.043485 1.98828,-6.390787 1.98828,-10.042969 0,-3.687988 -0.55604,-6.696066 -1.66602,-9.023437 -1.10997,-2.327371 -2.52351,-4.261136 -4.242182,-5.800782 -1.539646,-1.360617 -3.418718,-2.487669 -5.638672,-3.382812 -2.219954,-0.930949 -4.189529,-1.539726 -5.908204,-1.826172 v -0.751953 c 4.26088,-0.859337 7.949357,-2.936344 11.064454,-6.230469 3.150904,-3.329931 4.724604,-7.214389 4.724604,-11.654297 1e-5,-3.258319 -0.66151,-6.104274 -1.98632,-8.539062 C 100.89199,17.920681 98.941292,15.843674 96.363281,14.125 93.964299,12.549549 91.278514,11.403614 88.306641,10.6875 85.334767,9.9713858 81.896963,9.6132812 77.994141,9.6132812 Z"
       transform="matrix(0.26458333,0,0,0.26458333,-11.634272,172.3766)" />
  </g>
</svg>
