<?xml version="1.0" encoding="UTF-8" standalone="no"?>
<!-- Created with Inkscape (http://www.inkscape.org/) -->

<svg
   width="41.017895mm"
   height="24.686701mm"
   viewBox="0 0 41.017895 24.686701"
   version="1.1"
   id="svg21490"
   inkscape:version="1.1.2 (b8e25be833, 2022-02-05)"
   sodipodi:docname="Three.svg"
   xmlns:inkscape="http://www.inkscape.org/namespaces/inkscape"
   xmlns:sodipodi="http://sodipodi.sourceforge.net/DTD/sodipodi-0.dtd"
   xmlns="http://www.w3.org/2000/svg"
   xmlns:svg="http://www.w3.org/2000/svg">
  <sodipodi:namedview
     id="namedview21492"
     pagecolor="#ffffff"
     bordercolor="#666666"
     borderopacity="1.0"
     inkscape:pageshadow="2"
     inkscape:pageopacity="0.0"
     inkscape:pagecheckerboard="0"
     inkscape:document-units="mm"
     showgrid="false"
     inkscape:zoom="0.69664703"
     inkscape:cx="-395.46569"
     inkscape:cy="50.240651"
     inkscape:window-width="1920"
     inkscape:window-height="986"
     inkscape:window-x="-11"
     inkscape:window-y="-11"
     inkscape:window-maximized="1"
     inkscape:current-layer="layer1" />
  <defs
     id="defs21487">
    <rect
       x="87.562279"
       y="226.80066"
       width="37.321632"
       height="48.805195"
       id="rect2164" />
  </defs>
  <g
     inkscape:label="Layer 1"
     inkscape:groupmode="layer"
     id="layer1"
     transform="translate(-77.098473,-135.01727)">
    <path
       id="rect45"
       style="fill:#00ff00;fill-rule:evenodd;stroke-width:0.999999"
       d="M 0 0 L 0 93.304688 L 38.757812 93.304688 L 38.757812 0 L 0 0 z M 116.27148 0 L 116.27148 93.304688 L 155.02734 93.304688 L 155.02734 0 L 116.27148 0 z M 74.214844 5.8339844 C 70.24041 5.8339844 66.122207 6.3711412 61.861328 7.4453125 C 57.636255 8.4836781 54.253143 9.6296127 51.710938 10.882812 L 51.710938 22.107422 L 52.248047 22.107422 C 55.649589 19.887468 59.266445 18.168566 63.097656 16.951172 C 66.928867 15.733778 70.54377 15.125 73.945312 15.125 C 76.165266 15.125 78.153723 15.304052 79.908203 15.662109 C 81.662683 16.020166 83.309964 16.664755 84.849609 17.595703 C 86.317643 18.526652 87.463578 19.725325 88.287109 21.193359 C 89.110641 22.625588 89.521484 24.308679 89.521484 26.242188 C 89.521484 30.610484 87.893085 33.940857 84.634766 36.232422 C 81.412252 38.488182 77.079186 39.617188 71.636719 39.617188 L 67.876953 39.617188 L 67.876953 48.53125 L 72.710938 48.53125 C 75.36056 48.53125 77.831482 48.746113 80.123047 49.175781 C 82.414612 49.569644 84.365306 50.321664 85.976562 51.431641 C 87.587819 52.505812 88.841185 53.992922 89.736328 55.890625 C 90.667277 57.752522 91.132812 60.114059 91.132812 62.978516 C 91.132812 65.878778 90.721969 68.278079 89.898438 70.175781 C 89.110712 72.073484 87.893156 73.811268 86.246094 75.386719 C 84.670643 76.854753 82.610565 77.964877 80.068359 78.716797 C 77.526154 79.468717 75.126853 79.84375 72.871094 79.84375 C 69.039883 79.84375 65.066875 79.182233 60.949219 77.857422 C 56.831562 76.532611 53.250516 74.866448 50.207031 72.861328 L 49.400391 72.861328 L 49.400391 84.085938 C 52.15743 85.339137 55.685737 86.485072 59.982422 87.523438 C 64.279107 88.597609 68.64603 89.134766 73.085938 89.134766 C 77.418428 89.134766 81.393389 88.54487 85.009766 87.363281 C 88.661948 86.145887 91.830197 84.283743 94.515625 81.777344 C 96.914607 79.521584 98.776751 76.87161 100.10156 73.828125 C 101.42637 70.78464 102.08984 67.437339 102.08984 63.785156 C 102.08984 60.097168 101.53381 57.08909 100.42383 54.761719 C 99.313851 52.434348 97.900315 50.500583 96.181641 48.960938 C 94.641995 47.600321 92.762923 46.473268 90.542969 45.578125 C 88.323015 44.647177 86.35344 44.038399 84.634766 43.751953 L 84.634766 43 C 88.895645 42.140663 92.582169 40.063656 95.697266 36.769531 C 98.848168 33.4396 100.42383 29.555142 100.42383 25.115234 C 100.42383 21.856915 99.762311 19.01096 98.4375 16.576172 C 97.112689 14.141384 95.160042 12.064377 92.582031 10.345703 C 90.183049 8.7702519 87.499218 7.6243173 84.527344 6.9082031 C 81.55547 6.192089 78.117666 5.8339844 74.214844 5.8339844 z "
       transform="matrix(0.26458333,0,0,0.26458333,77.098473,135.01727)" />
  </g>
</svg>
