<?xml version="1.0" encoding="UTF-8" standalone="no"?>
<!-- Created with Inkscape (http://www.inkscape.org/) -->

<svg
   width="43.01791mm"
   height="26.686701mm"
   viewBox="0 0 43.01791 26.686701"
   version="1.1"
   id="svg41263"
   inkscape:version="1.1.2 (b8e25be833, 2022-02-05)"
   sodipodi:docname="ThreeFlashing.svg"
   xmlns:inkscape="http://www.inkscape.org/namespaces/inkscape"
   xmlns:sodipodi="http://sodipodi.sourceforge.net/DTD/sodipodi-0.dtd"
   xmlns="http://www.w3.org/2000/svg"
   xmlns:svg="http://www.w3.org/2000/svg">
  <sodipodi:namedview
     id="namedview41265"
     pagecolor="#ffffff"
     bordercolor="#666666"
     borderopacity="1.0"
     inkscape:pageshadow="2"
     inkscape:pageopacity="0.0"
     inkscape:pagecheckerboard="0"
     inkscape:document-units="mm"
     showgrid="false"
     inkscape:zoom="0.69664703"
     inkscape:cx="441.4"
     inkscape:cy="-90.433171"
     inkscape:window-width="1920"
     inkscape:window-height="986"
     inkscape:window-x="-11"
     inkscape:window-y="-11"
     inkscape:window-maximized="1"
     inkscape:current-layer="layer1" />
  <defs
     id="defs41260">
    <rect
       x="87.562279"
       y="226.80066"
       width="37.321632"
       height="48.805195"
       id="rect2164-4-0-6" />
  </defs>
  <g
     inkscape:label="Layer 1"
     inkscape:groupmode="layer"
     id="layer1"
     transform="translate(11.634272,-172.3766)">
    <path
       id="rect45-1-7-9"
       style="fill:#ffff00;fill-rule:evenodd;stroke:#ffffff;stroke-width:7.55906;stroke-miterlimit:4;stroke-dasharray:none;stroke-opacity:1"
       d="M 3.7792969 3.7792969 L 3.7792969 97.083984 L 42.537109 97.083984 L 42.537109 3.7792969 L 3.7792969 3.7792969 z M 120.05078 3.7792969 L 120.05078 97.083984 L 158.80859 97.083984 L 158.80859 3.7792969 L 120.05078 3.7792969 z M 77.994141 9.6132812 C 74.019707 9.6132813 69.901504 10.150438 65.640625 11.224609 C 61.415551 12.262975 58.03244 13.40891 55.490234 14.662109 L 55.490234 25.886719 L 56.027344 25.886719 C 59.428886 23.666765 63.045742 21.947863 66.876953 20.730469 C 70.708164 19.513075 74.32502 18.904297 77.726562 18.904297 C 79.946516 18.904297 81.93302 19.083349 83.6875 19.441406 C 85.44198 19.799463 87.089261 20.444052 88.628906 21.375 C 90.09694 22.305948 91.242875 23.506575 92.066406 24.974609 C 92.889938 26.406838 93.300781 28.087976 93.300781 30.021484 C 93.300781 34.389781 91.672382 37.720153 88.414062 40.011719 C 85.191549 42.267478 80.858483 43.396484 75.416016 43.396484 L 71.65625 43.396484 L 71.65625 52.310547 L 76.490234 52.310547 C 79.139857 52.310547 81.610778 52.52541 83.902344 52.955078 C 86.193909 53.348941 88.144602 54.100961 89.755859 55.210938 C 91.367116 56.285109 92.620482 57.772219 93.515625 59.669922 C 94.446573 61.531819 94.912109 63.895309 94.912109 66.759766 C 94.912109 69.660028 94.501266 72.057376 93.677734 73.955078 C 92.890009 75.852781 91.672453 77.590564 90.025391 79.166016 C 88.449939 80.63405 86.389862 81.744174 83.847656 82.496094 C 81.305451 83.248014 78.908103 83.623047 76.652344 83.623047 C 72.821133 83.623047 68.846172 82.96153 64.728516 81.636719 C 60.610859 80.311908 57.029813 78.645745 53.986328 76.640625 L 53.181641 76.640625 L 53.181641 87.867188 C 55.93868 89.120387 59.465034 90.266322 63.761719 91.304688 C 68.058404 92.378859 72.42728 92.914062 76.867188 92.914062 C 81.199678 92.914062 85.172686 92.324167 88.789062 91.142578 C 92.441245 89.925184 95.611447 88.06304 98.296875 85.556641 C 100.69586 83.300881 102.55605 80.650907 103.88086 77.607422 C 105.20567 74.563937 105.86914 71.216635 105.86914 67.564453 C 105.86914 63.876465 105.3131 60.868387 104.20312 58.541016 C 103.09315 56.213645 101.67961 54.27988 99.960938 52.740234 C 98.421292 51.379617 96.54222 50.252565 94.322266 49.357422 C 92.102312 48.426473 90.132737 47.817696 88.414062 47.53125 L 88.414062 46.779297 C 92.674942 45.91996 96.363419 43.842953 99.478516 40.548828 C 102.62942 37.218897 104.20312 33.334439 104.20312 28.894531 C 104.20313 25.636212 103.54161 22.790257 102.2168 20.355469 C 100.89199 17.920681 98.941292 15.843674 96.363281 14.125 C 93.964299 12.549549 91.278514 11.403614 88.306641 10.6875 C 85.334767 9.9713858 81.896963 9.6132812 77.994141 9.6132812 z "
       transform="matrix(0.26458333,0,0,0.26458333,-11.634272,172.3766)" />
  </g>
</svg>
