<?xml version="1.0" encoding="UTF-8" standalone="no"?>
<!-- Created with Inkscape (http://www.inkscape.org/) -->

<svg
   width="209.881mm"
   height="195.3194mm"
   viewBox="0 0 209.881 195.3194"
   version="1.1"
   id="svg143"
   inkscape:version="1.1.2 (b8e25be833, 2022-02-05)"
   sodipodi:docname="powerButton.svg"
   xmlns:inkscape="http://www.inkscape.org/namespaces/inkscape"
   xmlns:sodipodi="http://sodipodi.sourceforge.net/DTD/sodipodi-0.dtd"
   xmlns="http://www.w3.org/2000/svg"
   xmlns:svg="http://www.w3.org/2000/svg">
  <sodipodi:namedview
     id="namedview145"
     pagecolor="#ffffff"
     bordercolor="#666666"
     borderopacity="1.0"
     inkscape:pageshadow="2"
     inkscape:pageopacity="0.0"
     inkscape:pagecheckerboard="0"
     inkscape:document-units="mm"
     showgrid="false"
     fit-margin-top="0"
     fit-margin-left="0"
     fit-margin-right="0"
     fit-margin-bottom="0"
     inkscape:zoom="0.49260384"
     inkscape:cx="606.97863"
     inkscape:cy="501.41713"
     inkscape:window-width="1920"
     inkscape:window-height="986"
     inkscape:window-x="-11"
     inkscape:window-y="-11"
     inkscape:window-maximized="1"
     inkscape:current-layer="layer1" />
  <defs
     id="defs140">
    <rect
       x="34.450733"
       y="951.70148"
       width="193.78537"
       height="163.64098"
       id="rect41924" />
    <rect
       x="-200.9626"
       y="941.65332"
       width="455.03674"
       height="156.46375"
       id="rect37078" />
    <rect
       x="645.23352"
       y="242.59058"
       width="125.60164"
       height="62.441952"
       id="rect16158" />
    <rect
       x="466.52032"
       y="208.13985"
       width="64.595123"
       height="55.264717"
       id="rect9810" />
    <rect
       x="640.92719"
       y="239.71968"
       width="102.63447"
       height="93.30407"
       id="rect4984" />
  </defs>
  <g
     inkscape:label="Layer 1"
     inkscape:groupmode="layer"
     id="layer1"
     transform="translate(-86.476629,-32.514708)">
    <text
       xml:space="preserve"
       transform="matrix(0.26458333,0,0,0.26458333,18.045863,-33.123954)"
       id="text4982"
       style="font-style:normal;font-weight:normal;font-size:40px;line-height:1.25;font-family:sans-serif;white-space:pre;shape-inside:url(#rect4984);fill:#000000;fill-opacity:1;stroke:none" />
    <text
       xml:space="preserve"
       transform="matrix(0.26458333,0,0,0.26458333,18.045863,-33.123954)"
       id="text9808"
       style="font-style:normal;font-weight:normal;font-size:40px;line-height:1.25;font-family:sans-serif;white-space:pre;shape-inside:url(#rect9810);fill:#000000;fill-opacity:1;stroke:none" />
    <text
       xml:space="preserve"
       transform="matrix(0.26458333,0,0,0.26458333,18.045863,-33.123954)"
       id="text16156"
       style="font-style:normal;font-weight:normal;font-size:40px;line-height:1.25;font-family:sans-serif;white-space:pre;shape-inside:url(#rect16158);fill:#000000;fill-opacity:1;stroke:none" />
    <ellipse
       style="fill:#000000;fill-opacity:1;stroke:#00caff;stroke-width:8.465;stroke-miterlimit:4;stroke-dasharray:none;stroke-opacity:1"
       id="path20967"
       cx="191.41713"
       cy="129.13043"
       rx="100.708"
       ry="92.383224" />
    <text
       xml:space="preserve"
       transform="matrix(0.26458333,0,0,0.26458333,71.284332,-30.911116)"
       id="text37076"
       style="font-style:normal;font-weight:normal;font-size:40px;line-height:1.25;font-family:sans-serif;white-space:pre;shape-inside:url(#rect37078);fill:#000000;fill-opacity:1;stroke:none" />
    <text
       xml:space="preserve"
       transform="matrix(0.26458333,0,0,0.26458333,71.284332,-30.911116)"
       id="text41922"
       style="font-style:normal;font-weight:normal;font-size:40px;line-height:1.25;font-family:sans-serif;white-space:pre;shape-inside:url(#rect41924);fill:#000000;fill-opacity:1;stroke:none" />
    <rect
       style="fill:#ffff00;stroke-width:0.369054"
       id="rect595"
       width="29.382166"
       height="90.262016"
       x="176.72604"
       y="50.356068"
       ry="9.6709309" />
    <path
       id="path4339"
       style="fill:#ffff00;stroke:#00caff;stroke-width:0;stroke-miterlimit:4;stroke-dasharray:none;stroke-opacity:1"
       d="m 161.32978,76.995587 c -20.22415,10.994178 -32.8413,32.144113 -32.90807,55.163313 -7e-5,16.70748 6.63693,32.7307 18.45092,44.54467 11.81397,11.81398 27.83718,18.45098 44.54466,18.45091 16.70744,-2e-5 32.73055,-6.63706 44.54446,-18.45103 11.81391,-11.81396 18.45086,-27.83712 18.4508,-44.54455 -0.0669,-23.01908 -12.68402,-44.16887 -32.90807,-55.162991 -6.74751,6.566184 -16.2064,12.276145 0,26.090931 0.20851,0.21484 0.41471,0.43191 0.61855,0.65117 0.24393,0.26364 0.48446,0.53039 0.72152,0.80021 0.2372,0.26969 0.47091,0.54242 0.70107,0.81812 0.23002,0.27586 0.45647,0.55467 0.67932,0.83636 0.22284,0.28159 0.44204,0.56605 0.65757,0.85329 0.21555,0.28725 0.4274,0.57725 0.6355,0.86994 0.20816,0.29266 0.41255,0.588 0.6131,0.88592 0.20046,0.29799 0.39705,0.59855 0.58976,0.9016 0.19274,0.3031 0.38155,0.60867 0.56642,0.91663 0.1849,0.30788 0.36584,0.61815 0.54276,0.9307 0.17696,0.31257 0.34989,0.62742 0.51875,0.94445 0.1687,0.31695 0.33332,0.63606 0.49381,0.95724 0.16066,0.32132 0.31718,0.6447 0.46951,0.97004 0.15219,0.32527 0.30017,0.65248 0.44392,0.98156 0.14381,0.3291 0.28337,0.66004 0.41867,0.99274 0.13531,0.33263 0.26635,0.66698 0.39306,1.00299 0.12673,0.33604 0.24913,0.6737 0.36716,1.01289 0.11793,0.33925 0.23147,0.68 0.34062,1.02217 0.10922,0.34213 0.21402,0.68566 0.31439,1.03049 0.1004,0.3448 0.19636,0.69088 0.28784,1.03816 0.0915,0.34727 0.17848,0.69569 0.26098,1.04519 0.0826,0.34962 0.1606,0.70029 0.23412,1.05192 0.0734,0.35155 0.14228,0.70403 0.20661,1.05735 0.0644,0.35327 0.12418,0.70735 0.17942,1.06215 0.0553,0.35487 0.10608,0.71044 0.15224,1.06663 0.046,0.35616 0.0875,0.71291 0.12441,1.07014 0.0369,0.35724 0.0692,0.71495 0.0969,1.07302 0.0277,0.35811 0.0509,0.71657 0.0694,1.07527 0.0185,0.35866 0.0324,0.71753 0.0416,1.07654 0.009,0.35898 0.0139,0.71808 0.014,1.07718 -1e-5,1.04342 -0.0391,2.08647 -0.11706,3.12696 -0.078,1.04036 -0.19497,2.07743 -0.35052,3.10905 -0.15542,1.03173 -0.34937,2.05728 -0.58145,3.0745 -0.23217,1.01721 -0.50228,2.02537 -0.80981,3.02238 -0.30762,0.99698 -0.65242,1.98209 -1.03368,2.95329 -0.38117,0.97113 -0.79851,1.92766 -1.25117,2.86758 -0.45265,0.94008 -0.9403,1.86289 -1.46194,2.76651 -0.52167,0.9035 -1.07697,1.78716 -1.66471,2.64914 -0.58768,0.8621 -1.20741,1.70191 -1.85787,2.51769 -0.65057,0.81568 -1.33143,1.60674 -2.04114,2.37153 -0.70958,0.76484 -1.44751,1.50288 -2.21226,2.21256 -0.76488,0.70962 -1.55606,1.39036 -2.37184,2.04082 -0.81566,0.65058 -1.65537,1.27042 -2.51737,1.85821 -0.86208,0.58774 -1.74585,1.14304 -2.64946,1.6647 -0.90351,0.52164 -1.82621,1.00928 -2.76619,1.46193 -0.94003,0.45267 -1.89667,0.87002 -2.8679,1.25117 -0.9712,0.38116 -1.95632,0.72585 -2.95329,1.03337 -0.99701,0.30752 -2.00517,0.57765 -3.02237,0.8098 -1.01713,0.23218 -2.04257,0.42625 -3.07419,0.58177 -1.03173,0.15547 -2.0689,0.27229 -3.10936,0.35022 -1.0404,0.078 -2.08334,0.11703 -3.12665,0.11704 -1.04341,0 -2.08646,-0.0391 -3.12696,-0.11704 -1.04035,-0.078 -2.07743,-0.19476 -3.10904,-0.35022 -1.03174,-0.15552 -2.05728,-0.34958 -3.07451,-0.58177 -1.0171,-0.23216 -2.02515,-0.50228 -3.02206,-0.8098 -0.99697,-0.30752 -1.98209,-0.65221 -2.95329,-1.03337 -0.97122,-0.38115 -1.92787,-0.7985 -2.8679,-1.25117 -0.94007,-0.45264 -1.86289,-0.94029 -2.76651,-1.46193 -0.9035,-0.52167 -1.78716,-1.07697 -2.64915,-1.6647 -0.86202,-0.58779 -1.70184,-1.20762 -2.5176,-1.85821 -0.81569,-0.65047 -1.60674,-1.33121 -2.37153,-2.04082 -0.76485,-0.70967 -1.50287,-1.44772 -2.21256,-2.21256 -0.70961,-0.76479 -1.39035,-1.55586 -2.04083,-2.37153 -0.65058,-0.81577 -1.27041,-1.65558 -1.8582,-2.51769 -0.58763,-0.86198 -1.14281,-1.74565 -1.66438,-2.64914 -0.52175,-0.90361 -1.0095,-1.82643 -1.46226,-2.76651 -0.45266,-0.93992 -0.86999,-1.89645 -1.25116,-2.86758 -0.38116,-0.9712 -0.72587,-1.95631 -1.03337,-2.95329 -0.30753,-0.99701 -0.57766,-2.00517 -0.8098,-3.02238 -0.23219,-1.01721 -0.42625,-2.04277 -0.58177,-3.0745 -0.15546,-1.03162 -0.27228,-2.0687 -0.35021,-3.10905 -0.078,-1.04049 -0.11703,-2.08354 -0.11705,-3.12696 2e-5,-1.04331 0.0391,-2.08625 0.11705,-3.12664 0.0779,-1.04036 0.19475,-2.07743 0.35021,-3.10905 0.15552,-1.03173 0.34958,-2.05728 0.58177,-3.07451 0.23214,-1.0172 0.50227,-2.02536 0.8098,-3.02237 0.3075,-0.99697 0.65221,-1.98209 1.03337,-2.9533 0.38115,-0.97122 0.7985,-1.92786 1.25116,-2.8679 0.45276,-0.93996 0.94053,-1.86268 1.46226,-2.76619 0.52157,-0.90359 1.07675,-1.78736 1.66438,-2.64945 0.5878,-0.862 1.20763,-1.70171 1.8582,-2.51737 0.65048,-0.81568 1.33122,-1.60674 2.04083,-2.37153 0.19264,-0.19648 0.3872,-0.39104 0.58368,-0.58368 14.95592,-11.855725 8.46961,-19.197293 0,-26.121323 z"
       sodipodi:nodetypes="ccscscccccccsccscscccccscccssccccscccccccccccccccccssssccccccsssscsssssccssssscssssssccccccc" />
  </g>
</svg>
